<?xml version="1.0" standalone="no"?><!DOCTYPE svg PUBLIC "-//W3C//DTD SVG 1.1//EN" "http://www.w3.org/Graphics/SVG/1.1/DTD/svg11.dtd"><svg t="1747484603164" class="icon" viewBox="0 0 1024 1024" version="1.1" xmlns="http://www.w3.org/2000/svg" p-id="11795" xmlns:xlink="http://www.w3.org/1999/xlink" width="200" height="200"><path d="M480.69 1023.728c-2.223-0.227-10.284-0.992-17.912-1.704-45.907-4.26-97.524-17.4-141.6-36.042-37.99-16.077-81.927-41.5-98.253-56.855-3.495-3.29-12.596-10.97-20.228-17.07C101.822 831.403 35.78 705.308 25.186 573.139l-1.38-17.248 0.628-32.46 0.63-32.455 1.839-14.059C47.47 319.549 136.318 185.651 270.317 110.097l13.294-7.497 13.294-13.324c44.71-44.802 97.362-75.126 150.845-86.873l6.933-1.53h86.694l12.975 3.745 12.98 3.74 11.42 5.884c12.407 6.392 25.08 15.4 34.482 24.509l5.972 5.78 2.7-0.612c1.486-0.332 6.811-1.704 11.84-3.04l9.143-2.434h18.174l6.868 2.796 6.876 2.792 11.329 9.629c14.404 12.245 15.382 12.922 33.329 22.936 21.232 11.852 31.324 19.445 46.623 35.068 7.37 7.531 16.785 16.085 20.918 19.004C892.936 205.61 962.5 308.544 988.712 429.144c38.462 176.956-21.639 356.761-159.12 476.033-6.775 5.88-12.581 11.38-12.909 12.224-0.323 0.843-5.443 5.177-11.376 9.629-70.59 52.966-153.309 85.326-241.968 94.662l-18.493 1.948-30.058 0.25c-16.527 0.14-31.87 0.065-34.093-0.162z m84.492-502.989c1.582-12.744-0.992-23.897-4.286-18.567-1.17 1.891-1.345 13.67-0.249 16.833 0.83 2.402 4.286 3.722 4.535 1.734z m105.279-36.877c3.779-3.425 1.935-8.493-3.09-8.493-4.866 0-6.876 5.099-3.385 8.59 2.316 2.315 3.831 2.289 6.475-0.097z m-271.488-21.599c0.323-0.852 0.179-2.22-0.328-3.04l-0.918-1.486-1.284 0.795c-0.708 0.437-1.289 1.805-1.289 3.037v2.245h1.612c0.887 0 1.879-0.699 2.207-1.55z m144.099-177.538c0.655-1.232 1.197-3.311 1.197-4.626v-2.385h-4.627v9.244h1.119c0.611 0 1.651-1.005 2.31-2.233z m33.56-4.7v-2.316H558.14v4.631h18.488z m-12.918-12.626l1.66-0.926-1.258-0.774c-1.529-0.948-0.463-4.172 1.38-4.172 0.735 0 2.002-1.07 2.823-2.38l1.485-2.386 3.128 0.363 3.124 0.358 0.363 3.18 0.367 3.18h4.473v-2.184c0-1.197 0.778-3.67 1.73-5.487 2.198-4.216 2.198-6.204 0.005-6.204h-1.735v-2.743c0-1.512 0.782-3.399 1.735-4.19 3.07-2.547-1.189-6.946-4.623-4.775-0.637 0.402-2.717 0.856-4.626 1.005-1.905 0.157-6.195 0.599-9.533 0.983l-6.072 0.699v4.4h5.01c5.78 0 6.519 0.458 5.71 3.538-0.694 2.656-3.254 2.97-4.202 0.507-0.363-0.953-1.188-1.735-1.826-1.735h-1.162l0.668 3.364 0.673 3.364-2.36 1.259c-1.297 0.699-4.053 1.266-6.133 1.266h-3.775l1.39 1.385c1.835 1.835 1.769 5.47-0.105 6.19-0.817 0.315-1.573 1.661-1.673 2.998l-0.18 2.42 5.942-0.786c3.277-0.437 6.693-1.206 7.602-1.717z m-19.445-3.556v-4.627h-9.249v9.249h9.249z m9.244-11.56v-2.316h-4.622v4.631h4.622z m39.302-18.497v-2.311h-6.934v4.626h6.934z" fill="#CAE3FD" p-id="11796"></path><path d="M474.334 0l-15.601 2.005-15.605 2.001-14.67 4.5c-19.118 5.858-37.769 13.827-56.096 23.958-31.892 17.641-70.49 49.52-89.096 73.596-2.949 3.814-8.59 10.743-12.538 15.396-17.572 20.708-47.008 70.765-56.537 96.148-0.834 2.228-3.163 7.95-5.172 12.713-17.947 42.586-37.427 112.369-41.626 149.114-5.88 51.517-7.715 119.678-4.015 149.11 0.284 2.229 0.817 9.507 1.189 16.183 0.37 6.675 1.406 22.018 2.298 34.102 0.89 12.08 2.175 35.483 2.857 52.015 1.909 46.396 3.473 69.76 4.87 72.827l1.281 2.809 8.213 3.364c4.513 1.852 14.71 4.775 22.657 6.5a2881.1 2881.1 0 0 1 23.788 5.274c5.133 1.18 17.095 3.495 26.583 5.155 9.49 1.66 25.055 4.526 34.588 6.365 9.537 1.84 20.721 3.504 24.854 3.696l7.514 0.35 0.577-8.091 0.576-8.091 19.651 0.34c10.808 0.188 24.072 0.835 29.476 1.442 5.404 0.612 17.628 1.39 27.165 1.73 9.537 0.345 20.59 0.909 24.561 1.25l7.226 0.624-0.022 8.288c-0.104 37.807-12.713 74.618-32.232 94.116l-7.235 7.226-3.084 0.63c-8.45 1.72-12.071 3.245-17.17 7.216-11.437 8.908-21.913 14.666-74.059 40.735-51.67 25.824-73.046 37.903-74.697 42.202l-0.786 2.045 2.634 2.817c1.446 1.547 7.576 6.09 13.613 10.092 74.151 49.131 155.79 76.279 245.053 81.504 19.37 1.136 53.002 0.463 62.766-1.245 3.687-0.647 11.49-1.341 17.34-1.538 19.755-0.664 67.086-10.201 93.002-18.742 58.34-19.222 114.92-48.755 151.989-79.337l5.491-4.526v-2.15c0-1.179-4.207-8.413-9.349-16.076l-9.358-13.928-8.27-7.606c-13.853-12.726-23.045-16.06-55.527-20.14-29.493-3.713-43.25-5.723-55.046-8.06a1929.621 1929.621 0 0 0-21.966-4.185l-10.979-2.019-9.249-4.316c-5.085-2.372-12.32-5.116-16.077-6.095l-6.824-1.778-5.015-4.919-5.01-4.923-4.72-9.057-4.709-9.06-2.804-11.224c-4.212-16.864-6.672-49.096-3.95-51.814l1.175-1.17 7.209 0.89c3.962 0.49 20.987 1.958 37.833 3.256 16.85 1.297 37.694 2.927 46.322 3.612l15.693 1.254 31.123-1.28c41.224-1.7 38.117-0.48 36.33-14.242-0.598-4.605-1.11-20.708-1.127-35.78l-0.035-27.414 2.95-18.83c1.616-10.349 4.364-24.281 6.098-30.956l3.146-12.137 16.155-2.027 16.156-2.023 11.56-3.565c12.966-4.001 18.467-6.828 29.747-15.29l7.78-5.841 4.588-6.536c8.47-12.07 12.739-26.003 12.77-41.634l0.017-9.87-1.77-6.793c-0.974-3.74-3.442-9.956-5.486-13.818l-3.723-7.02-7.986-8.433-7.99-8.427-8.773-5.723c-13.35-8.707-13.975-9.2-13.975-11.07 0-0.962 2.08-5.19 4.622-9.406 6.4-10.616 11.568-24.5 13.442-36.134l1.582-9.83 0.734-26.584 0.73-26.584-1.368-12.713c-0.751-6.994-2.433-18.698-3.73-26.012-2.098-11.813-3.889-19.2-12.504-51.603-1.206-4.544-3.032-15.728-4.054-24.854l-1.866-16.593-4.478-16.758c-6.011-22.486-10.074-32.653-20-50.08l-8.362-14.679-7.514-8.943c-21.9-26.081-42.526-42.333-73.976-58.292l-9.821-4.98-10.704-10.184-10.708-10.18-6.378-2.826-6.383-2.818H638.88l-8.607 2.888c-10.454 3.508-11.096 3.53-13.87 0.437-1.21-1.354-7.406-6.614-13.762-11.695l-11.56-9.24-13.29-6.662-13.294-6.663-13.87-3.718-13.871-3.722-31.21-0.611L474.333 0z m-5.304 449.939h1.162c1.791 0 4.714 11.219 4.806 18.419 0.043 3.538 0.458 7.405 0.926 8.593l0.847 2.154-2.503 5.19c-1.372 2.853-3.224 5.649-4.106 6.203-4.767 3.024-5.138 1.735-2.106-7.274l2.394-7.099 0.179-8.76c0.1-4.814-0.218-10.703-0.708-13.088l-0.891-4.334z m-72.766 6.099c1.817-0.46 3.862 0.332 4.744 2.73l0.91 2.464-1.713 2.447c-2.845 4.063-7.362 2.315-7.362-2.849 0-2.617 1.6-4.33 3.42-4.792z m334.682 15.491l1.485 1.805c3.18 3.844 4.347 13.473 2.43 19.97-0.848 2.865-2.762 6.64-4.256 8.378l-2.708 3.163 0.834-4.045c0.463-2.224 1.15-9.72 1.53-16.658l0.685-12.613z m-66.414 2.687h2.783c5.264 0 8.152 5.487 4.967 9.441-3.123 3.88-9.275 3.115-10.686-1.332l-0.773-2.447 1.857-2.831 1.852-2.83z m-102.439 26.698c2.678-1.263 4.474 8.676 3.09 19.825-0.25 1.988-3.701 0.668-4.536-1.734-1.092-3.163-0.921-14.942 0.25-16.838 0.41-0.664 0.812-1.074 1.196-1.253z m-10.965 491.145c0.511 0-1.416 2.341-4.277 5.198-6.737 6.746-7.55 6.833-4.264 0.472 1.555-3.001 5.574-5.67 8.54-5.67z" fill="#EEC5B9" p-id="11797"></path><path d="M478.96 1022.509c-89.8-7.156-169.814-34.666-240.75-82.766-11.895-8.07-14.294-10.49-13.263-13.39 1.337-3.745 24.758-16.864 75.104-42.072 51.918-25.994 62.7-31.905 72.914-39.996 5.841-4.626 11.73-7.116 16.829-7.116h3.958l5.832-5.243c19.808-17.811 31.717-49.555 34.382-91.63l0.8-12.613-1.45-0.891c-0.796-0.494-11.687-1.315-24.2-1.826-12.511-0.512-28.182-1.486-34.827-2.172-6.64-0.681-20.402-1.363-30.573-1.516l-18.493-0.28-0.576 8.092-0.581 8.095-7.515-0.34c-4.128-0.184-15.312-1.901-24.849-3.82a1374.076 1374.076 0 0 0-30.053-5.67c-6.99-1.205-25.789-5.059-41.77-8.562l-29.052-6.379-6.3-2.778-6.29-2.783-1.918-6.824c-2.648-9.45-2.958-12.94-4.304-48.384-1.62-42.727-2.883-65.912-5.718-105.187l-2.42-33.522-0.023-26.583c-0.03-37.825 3.928-87.533 8.244-103.566 0.616-2.298 1.67-10.879 2.333-19.053 0.664-8.182 1.936-18.008 2.822-21.839 0.892-3.831 3.255-14.247 5.252-23.15 9.087-40.485 21.162-76.135 39.354-116.165C267.783 101.513 354.162 25.033 445.439 4.613l10.402-2.328 38.257-0.524 38.257-0.516 15.225 3.679 15.23 3.682 12.403 6.117c13.355 6.588 21.861 12.42 35.67 24.465l8.786 7.663 9.979-3.338 9.982-3.338 11.56 0.092 11.555 0.096 6.938 3.565 6.933 3.565 8.13 8.475 8.13 8.48 15.567 8.187c68.59 36.064 106.772 90.975 112.054 161.15l1.088 14.452 4.6 14.448a430.205 430.205 0 0 1 14.16 57.799l2.664 15.6v31.788l0.009 31.787-1.547 10.878c-1.935 13.661-8.947 32.622-15.78 42.678-1.572 2.307-2.852 5.33-2.852 6.71v2.517l9.82 6.601c9.022 6.064 23.697 19.996 23.697 22.49 0 0.582-3.39-0.532-7.536-2.472l-7.536-3.525-2.7 0.677-2.705 0.677-1.987 5.513c-1.093 3.028-2.438 6.549-2.989 7.82-0.546 1.272-1.31 3.937-1.703 5.924-0.385 1.984-1.975 4.806-3.535 6.27-1.555 1.463-2.826 3.696-2.826 4.967 0 1.267-0.682 3.128-1.512 4.133-2.315 2.804-9.537 20.463-12.329 30.144-1.371 4.766-3.272 10.1-4.22 11.848-0.948 1.748-1.424 3.67-1.061 4.26 0.367 0.594-0.193 3.228-1.241 5.854l-1.914 4.77 1.206 2.53c0.664 1.39 1.53 3.508 1.922 4.714l0.708 2.184 7.195-0.699c20.184-1.966 37.886-10.48 47.052-22.639l3.914-5.198 0.455 1.363c0.249 0.747-1.005 4.036-2.783 7.304l-3.233 5.942-6.575 5.933c-15.963 14.408-34.199 21.66-63.137 25.107-6.523 0.777-12.307 1.983-12.858 2.678-1.795 2.272-8.073 29.8-10.489 46.016l-2.364 15.859 0.035 27.488c0.018 15.12 0.525 31.258 1.123 35.867 1.787 13.762 4.893 12.539-36.33 14.238l-31.123 1.28-15.689-1.254a22870.472 22870.472 0 0 0-46.322-3.612c-16.85-1.298-33.88-2.766-37.846-3.255-3.967-0.494-7.812-0.524-8.55-0.07l-1.337 0.83 0.634 17.737 0.633 17.746 2.534 12.136 2.534 12.141 4.312 9.262 4.316 9.266 6.366 6.837 6.36 6.837 3.723 0.263c5.823 0.401 9.205 1.485 19.174 6.142l9.284 4.338 10.978 2.014c6.042 1.11 15.925 2.993 21.962 4.194 11.8 2.333 25.557 4.347 55.055 8.052 32.482 4.085 41.67 7.418 55.519 20.144l8.278 7.602 9.35 13.936c5.146 7.659 9.349 14.636 9.349 15.496 0 5.374-43.6 35.077-78.63 53.57-51.079 26.968-132.167 51.018-172.198 51.075-4.767 0.009-12.744 0.795-17.729 1.748l-9.06 1.734-27.35-0.197c-15.045-0.104-29.432-0.358-31.978-0.559z m84.405-9.673l2.114-2.337-1.354-1.359-1.363-1.363-1.027 1.101c-0.568 0.603-1.38 2.272-1.813 3.696l-0.786 2.604h1.057c0.581 0 2.01-1.053 3.172-2.342z m-11.337-17.885c5.788-2.753 6.247-4.046 1.428-4.046-7.34 0-13.814 6.108-13.814 13.041 0 4.858 1.499 4.47 4.544-1.18l2.97-5.504z m11.035-31.792c23.137-2.25 40.38-8.261 54.592-19.039l6.925-5.251 4.92-7.213 4.918-7.217 2.888-9.284c3.067-9.864 4.876-24.858 3.613-29.9l-0.765-3.04-11.821-5.82a1345.08 1345.08 0 0 1-19.913-10.004 332.874 332.874 0 0 0-12.137-6.016 41.503 41.503 0 0 1-7.313-4.425c-1.796-1.429-4.225-2.6-5.395-2.6-1.171 0-3.605-0.73-5.405-1.625a102.666 102.666 0 0 0-6.16-2.787l-4.626-1.861c-0.952-0.393-3.814-1.962-6.357-3.495a129.097 129.097 0 0 0-8.09-4.478c-1.91-0.93-5.26-3.045-7.45-4.7-2.188-1.661-4.63-3.015-5.43-3.015-0.8 0-2.852-1.302-4.57-2.888-1.712-1.59-4.176-2.892-5.473-2.892-1.298 0-3.465-1.036-4.815-2.307l-2.455-2.307-3.399-0.157c-1.87-0.087-4.377-0.402-5.574-0.708l-2.176-0.554 1.599-1.101 1.599-1.106-4.627 0.555-17.042 2.04-12.42 1.486-0.638 2-0.634 1.997-3.416 0.752c-1.879 0.415-3.417 1.227-3.417 1.813 0 0.585-0.389 0.974-0.865 0.865-1.59-0.372-7.75 2.97-12.547 6.81-2.608 2.084-5.01 3.793-5.343 3.793-0.332 0-2.604 1.834-5.054 4.076-2.447 2.245-6.396 4.661-8.773 5.373-2.377 0.712-5.47 2.521-6.876 4.015-1.407 1.494-3.128 2.717-3.823 2.717-0.699 0-4.037 1.822-7.414 4.046-3.381 2.228-6.75 4.05-7.488 4.054-1.533 0.009-11.079 8.912-16.658 15.544l-3.757 4.46v2.766c0 11.184 30.638 45.348 50.87 56.72 3.504 1.966 12.844 6.002 20.76 8.965l14.39 5.382 13.339 2.687c7.34 1.476 14.64 2.918 16.23 3.202 5.54 0.987 42.272 0.764 53.473-0.328z m1.416-241.636l8.078-1.17 17.807-8.686c9.799-4.78 19.79-10.384 22.215-12.455 2.42-2.075 5.81-4.522 7.532-5.44 1.72-0.917 6.16-4.53 9.873-8.025 8.724-8.213 12.198-10.782 17.16-12.67 2.224-0.847 5.964-3.022 8.31-4.84 2.346-1.813 4.85-3.298 5.557-3.298 0.712 0 3.473-2.447 6.138-5.43 2.665-2.989 6.038-6.58 7.488-7.978 1.455-1.398 2.844-3.578 3.089-4.84 0.65-3.369 3.276-7.183 4.95-7.183 0.8 0 1.454-0.786 1.454-1.747 0-2.054 5.252-7.733 8.948-9.673 1.42-0.747 2.927-2.708 3.337-4.36 0.415-1.651 2.11-5.312 3.77-8.143 1.66-2.827 3.649-6.265 4.413-7.641 0.769-1.372 2.119-3.023 2.997-3.67 1.914-1.411 3.224-7.335 1.813-8.209-0.55-0.336-1.005-1.612-1.005-2.826v-2.207l-3.495-2.59-3.5-2.587 0.569-1.494 0.577-1.49h-2.316c-1.267 0-2.604-0.764-2.962-1.703-0.358-0.93-2.377-2.32-4.491-3.085l-3.84-1.389-1.223-2.691c-0.678-1.481-2.05-2.691-3.045-2.691h-1.818l-1.66-3.757c-2.184-4.968-3.962-6.982-7.567-8.572-1.642-0.725-3.05-2.018-3.119-2.874-0.074-0.857-0.891-4.522-1.809-8.144l-1.673-6.588 1.573-2.084c2.547-3.35 1.948-4.775-3.08-7.34-7.165-3.656-14.561-11.07-19.048-19.1l-4.032-7.208-1.678-7.908c-0.917-4.355-1.682-11.459-1.695-15.788l-0.022-7.868-1.066 0.655c-1.573 0.97-4.893 11.62-5.723 18.34l-0.725 5.828-3.438 0.917-3.443 0.918-1.127-1.127c-0.62-0.62-1.337-4.64-1.59-8.93-0.258-4.286-0.93-8.292-1.503-8.895-0.568-0.603-1.031-1.992-1.031-3.084s-0.9-3.552-1.997-5.466l-1.996-3.477 1.415-3.923c0.782-2.158 1.42-4.832 1.42-5.946 0-1.114 0.782-2.805 1.735-3.757l1.734-1.735v-7.846l2.403-1.284c1.32-0.708 3.14-1.005 4.045-0.656l1.643 0.634v-4.526l4.334-3.98 4.334-3.984 3.713-0.7 3.705-0.698 2.372-3.334 2.372-3.333 8.37-2.43c4.601-1.336 9.83-2.904 11.63-3.49 1.792-0.585 4.006-0.778 4.92-0.428 0.913 0.35 2.826-0.11 4.25-1.018l2.591-1.66 7.252 0.218c3.989 0.127 7.501-0.174 7.803-0.668 0.306-0.494 1.594-0.625 2.866-0.293l2.31 0.607v-3.74h2.168c1.197 0 2.818-0.777 3.608-1.734l1.442-1.73h8.882l4.054-3.56c4.002-3.513 6.946-3.744 5.68-0.45l-0.656 1.695h1.214c0.669 0 1.543-0.533 1.945-1.184 0.402-0.655 2.123-1.044 3.827-0.87l3.088 0.324 0.372-2.604 0.367-2.6h2.232c2.927 0 2.87-1.952-0.079-2.891-1.27-0.402-2.315-1.197-2.315-1.765 0-1.717-8.357-3.417-18.323-3.723-5.172-0.161-9.41-0.73-9.41-1.266l-0.004-0.983-7.226 0.917c-3.976 0.511-9.699 0.83-12.73 0.712-3.028-0.114-7.838 0.581-10.691 1.551l-5.19 1.76-9.734 0.245-9.733 0.24-3.268-2.415c-1.8-1.333-4.439-4.138-5.872-6.239l-2.6-3.823v-9l2.242-4.394c4.596-9.009 13.067-14.312 27.235-17.06l8.09-1.569h29.39l16.513 3.539c9.087 1.944 20.097 3.976 24.478 4.504l7.965 0.97 3.307-1.153 3.307-1.15v-13.132l-2.315-1.979-2.312-1.979v-7.855l-3.634-7.934c-2.001-4.36-5.06-9.493-6.79-11.402-1.734-1.905-5.985-7.208-9.449-11.778-10.079-13.299-31.621-35.61-46.012-47.663-18.082-15.138-19.458-16.165-44.5-32.967-12.08-8.109-23.897-16.597-26.256-18.86l-4.286-4.12-6.116-0.493-6.112-0.494-15.029 3.102c-32.433 6.693-63.347 20.524-86.431 38.672-3.67 2.888-8.904 6.81-11.621 8.72-9.384 6.575-25.243 23.508-29.542 31.542-0.716 1.337-3.32 4.762-5.775 7.602-2.46 2.84-6.182 8.676-8.27 12.962l-3.797 7.79-1.153 10.061c-1.63 14.19-1.062 14.95 13.084 17.458 26.938 4.779 45.086 17.379 45.077 31.293l-0.004 4.972-2.39 3.918-2.39 3.915-7.745-0.647c-4.26-0.358-11.08-1.804-15.156-3.215-4.076-1.407-12.569-3.727-18.873-5.147l-11.472-2.586-4.216 0.494c-5.732 0.668-8.921 2.416-10.424 5.71l-1.258 2.77 0.712 5.181c0.389 2.853 1.42 5.775 2.29 6.496 0.864 0.721 1.572 2.128 1.572 3.128 0 2.062 5.575 8.292 7.444 8.323 2.526 0.044 14.885 9.087 22.674 16.601 6.667 6.422 13.255 11.097 15.658 11.11l2.425 0.009 2.14 4.753c1.18 2.612 3.539 6.247 5.247 8.073 5.107 5.461 7.925 18.035 7.969 35.51l0.022 9.61-1.263 2.36-1.263 2.36-4.73-4.929-4.737-4.923-1.441-5.557c-1.879-7.253-9.516-20.184-14.942-25.296l-4.285-4.045 0.72 3.469c0.394 1.909 1.294 6.33 1.993 9.83l1.28 6.352-0.734 6.937-0.734 6.933-3.495 8.804-3.495 8.803-5.627 6.317c-3.102 3.477-10.136 9.349-15.645 13.05l-10.013 6.727 0.503 4.16c0.28 2.284 0.013 5.587-0.586 7.339l-1.088 3.176h-2.359c-1.302 0-5.802 2.176-10.004 4.836l-7.637 4.836-3.18-0.231-3.18-0.232v1.791c0 0.983-0.918 2.163-2.041 2.622-2.464 1-12.984 12.158-12.984 13.77 0 1.844-3.364 8.073-5.173 9.572l-1.66 1.376 1.38 2.215 1.386 2.21-1.433 2.299c-2.163 3.464-1.77 5.33 2.031 9.663 1.91 2.172 3.469 4.448 3.469 5.05 0 0.612 1.77 3.4 3.932 6.204 2.158 2.81 6.85 10.922 10.424 18.039l6.496 12.931 2.29 0.73 2.289 0.725v6.234l8.09 8.638c4.448 4.748 8.092 9.121 8.092 9.711 0 0.594 0.305 0.774 0.677 0.402 0.865-0.865 5.102 2.726 5.102 4.325 0 2.172 10.433 13.194 17.72 18.72 3.923 2.971 8.65 7.196 10.507 9.38l3.377 3.971 7.178 3.22c3.95 1.774 7.514 3.757 7.92 4.417 1.761 2.848 14.828 8.995 25.514 12.001 6.374 1.791 14.185 3.989 17.366 4.875 10.598 2.958 26.099 3.648 39.284 1.744zM539.2 667.809l-9.109-1.595-6.313-3.189c-3.473-1.76-8.3-5.185-10.734-7.619l-4.42-4.421-1.718-5.042-1.717-5.037 1.276-1.275c0.699-0.7 3.77-1.276 6.824-1.276h5.548v-1.11c0-0.611-3.77-2.228-8.379-3.595-15.042-4.465-26.3-10.455-26.3-13.993v-1.197l4.915 0.733c2.7 0.407 10.891 1.031 18.205 1.39l13.294 0.655 13.25-2.425c7.287-1.332 16.798-2.42 21.132-2.42h7.881l4.15-1.734c2.28-0.957 6.348-1.735 9.04-1.735h4.888l3.932 2.892c2.158 1.59 7.824 4.832 12.59 7.2l8.673 4.308 10.306 0.026 10.301 0.022 0.463 1.385 0.463 1.38-4.87 3.53c-2.683 1.94-5.444 3.548-6.143 3.565-0.7 0.022-2.753 1.337-4.557 2.927l-3.285 2.888-0.516 3.722-0.515 3.722-5.636 5.321c-3.097 2.928-8.672 7.07-12.381 9.201l-6.75 3.88-17.34 0.253-17.335 0.253z m19.507-84.929l-9.262-0.812-5.19-2.303c-2.853-1.267-5.898-3.158-6.763-4.207l-1.573-1.905 0.69-1.8c1.481-3.866 20.582-8.628 34.614-8.632h6.728l1.686-1.686c2.766-2.766 11.031 4.849 12.766 11.76l0.716 2.857-2.861 2.862c-4.793 4.792-11.556 5.623-31.551 3.866zM448.842 705.625c-8.869-7.466-29.992-22.43-47.209-33.438-3.748-2.399-8.951-6.03-11.56-8.074-9.773-7.645-26.43-18.825-28.047-18.825h-1.682l2.088 3.582c3.246 5.562 23.172 24.138 32.757 30.538 10.035 6.697 49.184 26.85 52.5 27.025l2.254 0.118z m319.986-169.399l4.465-7.916 0.074-3.64c0.043-2.004 0.786-5.045 1.656-6.762 0.865-1.717 1.581-4.316 1.585-5.78 0-1.463 0.804-4.194 1.783-6.072 0.978-1.875 1.643-4.474 1.477-5.776-0.17-1.302 0.096-3.014 0.59-3.81 0.493-0.79 1.04-8.256 1.218-16.588l0.323-15.15-4.456 0.716c-2.455 0.393-7.182 1.616-10.507 2.717l-6.042 2.006-2.612 9.244c-3.412 12.088-11.708 28.851-17.576 35.514-5.212 5.92-5.6 7.252-2.577 8.868 1.144 0.612 4.92 4.107 8.38 7.768l9.466 9.982 3.172 3.343 2.556-0.372 2.56-0.371z m-38.533-24.565c1.97-1.66 4.954-5.352 6.628-8.214l3.049-5.198 0.533-8.318 0.537-8.314-3.145-6.304c-2.709-5.426-6.754-10.232-8.69-10.32-0.319-0.012-0.393 6.484-0.17 14.435l0.41 14.46-3.014 9.075c-4.299 12.97-3.46 14.858 3.862 8.693z m-58.803-25.929l2.232-1.197v-7.252l-1.913-2.11c-2.377-2.63-5.916-2.709-8.69-0.201l-2.11 1.913v7.62l2.023 1.18c2.62 1.528 5.662 1.546 8.453 0.047zM401.275 463.7l1.153-1.843-0.742-2.94c-1.385-5.536-8.083-4.906-9.542 0.9l-0.716 2.87 1.472 1.778 1.477 1.774 2.87-0.35c1.581-0.188 3.39-1.175 4.028-2.184z m349.348-60.433c1.254-0.878 3.32-1.856 4.592-2.18l2.315-0.58-4.216-0.132-4.211-0.14-0.664-1.73c-0.367-0.956-1.46-1.734-2.434-1.734a1.756 1.756 0 0 0-1.77 1.734c0 0.953 0.52 1.73 1.154 1.73 0.638 0 1.158 1.045 1.158 2.316 0 2.722 0.965 2.892 4.076 0.716z m117.183 132.789a1023.531 1023.531 0 0 0-0.506-16.143l-0.332-8.051 1.253 2.24c0.69 1.233 1.486 7.515 1.774 13.963l0.524 11.726-1.267 2.176-1.267 2.184z" fill="#DDAFA2" p-id="11798"></path><path d="M493.408 1022.579c-95.881-5.151-179.801-32.5-253.9-82.745-12.98-8.798-14.6-10.301-13.683-12.686 1.486-3.871 22.015-15.326 74.549-41.604 30.83-15.422 58.402-29.734 61.259-31.805 2.861-2.07 7.724-5.653 10.808-7.96 3.08-2.31 7.44-4.967 9.686-5.906l4.08-1.704 3.32 1.372 3.32 1.376 8.31-7.842c21.879-20.642 31.28-44.775 34.513-88.63l1.28-17.37-1.083-1.078-1.08-1.084-25.308-1.027c-13.918-0.563-30.507-1.542-36.863-2.17-6.357-0.63-19.878-1.311-30.057-1.508l-18.493-0.363-0.131 6.934c-0.075 3.814-0.206 7.645-0.289 8.519l-0.157 1.572-7.803-0.795c-4.29-0.437-14.04-2.097-21.669-3.687a1536.765 1536.765 0 0 0-32.368-6.247c-10.17-1.844-29.083-5.693-42.023-8.55l-23.526-5.199-6.037-2.765-6.03-2.761-3.097-10.896-3.088-10.896v-20.847c0-11.468-0.765-32.513-1.695-46.768a7793.61 7793.61 0 0 1-2.928-47.305 2218.375 2218.375 0 0 0-2.45-36.86c-2.425-30.895-1.167-89.681 2.42-112.827 5.216-33.705 14.137-70.145 26.737-109.232 11.083-34.382 35.88-92.43 58.021-135.82 4.317-8.458 17.659-30.341 20.442-33.522 9-10.288 6.326-10.79-5.177-0.979l-9.013 7.69-1.857-1.206-1.856-1.206 0.183-2.761c0.371-5.61 17.274-28.515 36.75-49.795 14.692-16.06 29.524-29.022 49.45-43.216l14.181-10.105 21.018-10.808 21.018-10.813 18.86-6.208 18.86-6.208 12.713-2.123 12.718-2.124 33.521 0.105 33.522 0.105 14.447 3.714 14.452 3.713 13.871 7.003c15.3 7.733 16.34 8.432 32.534 21.975l11.272 9.415 9.305-3.364 9.305-3.364h24.273l6.938 4.25c7.077 4.343 12.503 9.459 15.977 15.069l1.94 3.136 16.47 8.043c9.06 4.426 22.175 11.857 29.148 16.514l12.678 8.467 11.595 10.913c26.151 24.605 43.054 51.132 52.206 81.94l2.976 10.022 0.904 17.344 0.9 17.336 2.914 8.667a3238.17 3238.17 0 0 0 8.121 23.696c5.339 15.392 12.124 43.889 14.863 62.421l1.538 10.398-0.044 30.634-0.035 30.633-1.464 9.245c-0.803 5.09-1.922 10.55-2.49 12.14-3.97 11.202-10.223 25.667-12.949 29.988-1.79 2.826-3.25 6.51-3.25 8.182v3.037l2.927 2.748 2.923 2.748-3.351 2.62-3.351 2.622-0.747 3.792c-0.415 2.084-2.119 7.283-3.788 11.547l-3.032 7.754-3.748 4.094c-2.062 2.25-4.587 4.094-5.614 4.094h-1.865v-4.138c0-2.271 1.157-11.245 2.573-19.939l2.573-15.806-0.022-21.38-0.022-21.386-3.67-14.618c-17.282-68.86-70.773-136.27-149.158-187.966-11-7.252-23.12-15.788-26.933-18.96l-6.933-5.767-6.03-0.625-6.028-0.624-14.745 1.904c-46.566 6.003-102.71 34.732-128.966 65.986-2.14 2.543-6.82 7.82-10.406 11.73-9.06 9.883-10.463 11.905-20.402 29.402l-8.781 15.452-0.223 5.745-0.232 5.741 4.627 0.821c2.542 0.446 11.385 1.717 19.646 2.818l15.029 2.001 10.817 3.408 10.817 3.407 6.186 3.958 6.19 3.959 2.936 5.006 2.932 5.007v8.152l-2.394 3.045-2.399 3.05h-2.555c-1.403 0-7.917-1.827-14.474-4.055-16.435-5.592-33.705-9.847-44.313-10.922l-8.912-0.909-8.951 0.874-8.943 0.874-2.757 3.311c-1.516 1.822-3.74 5.392-4.937 7.934l-2.188 4.627-0.027 7.046-0.026 7.052 3.478 4.797c1.909 2.638 3.696 4.796 3.967 4.796 12.673 0 40.28 9.328 53.464 18.06l9.468 6.274 7.531 8.249 7.532 8.257 4.731 9.344 4.732 9.35 1.232 8.344 1.232 8.349-0.782 4.163-0.782 4.163-1.726-1.432c-2.503-2.08-3.866-4.99-5.793-12.403-2.83-10.874-19.196-31.412-25.033-31.412h-1.704l2.919 7.798 2.91 7.803 0.122 9.83 0.122 9.82-3.207 8.712-3.202 8.711-4.998 6.09c-5.44 6.628-13.49 12.521-21.31 15.597l-4.981 1.957-12.652-0.769-12.652-0.764-4.718 2.127-4.719 2.128-1.922-1.206-1.926-1.206-0.359-4.194-0.358-4.202-2.477-1.735-2.473-1.734-2.739 2.573c-1.507 1.415-4.194 5.697-5.972 9.52-1.778 3.818-4.39 7.977-5.802 9.244-8.23 7.352-16.155 42.953-11.498 51.652 0.694 1.297 2.21 5.557 3.364 9.458 3.158 10.66 8.187 25.37 9.349 27.327 3.962 6.697 6.828 12.997 6.828 15.028 0 1.31 1.293 4.946 2.875 8.07l2.883 5.679-0.695 1.79c-1.424 3.714-12.424-1.078-28.082-12.236-3.438-2.45-6.95-4.456-7.803-4.456h-1.546v6.536l3.43 5.111c12.512 18.655 41.297 41.617 69.222 55.221 7.851 3.827 15.282 7.873 16.514 8.987 3.4 3.075 26.466 12.416 54.169 21.935l24.85 8.541 12.136 1.717c19.178 2.713 45.042 1.075 54.906-3.482 1.91-0.882 8.563-3.43 14.788-5.662 13.994-5.02 40.368-17.724 55.742-26.855 6.352-3.77 12.328-7.173 13.28-7.562 4.238-1.739 37.021-24.622 46.842-32.7 11.551-9.506 28.122-27.405 40.228-43.452 4.054-5.373 8.641-10.354 10.188-11.061 1.55-0.704 4.093-3.155 5.657-5.444 3.4-4.972 4.806-5.649 8.707-4.168 1.626 0.62 4.614 1.145 6.641 1.167 3.989 0.043 9.83 2.708 8.17 3.722-0.564 0.345-4.666 0.979-9.114 1.415-4.451 0.433-9 1.04-10.113 1.35l-2.023 0.564v3.84c0 2.115-1.354 8.97-3.006 15.238-7.357 27.904-10.904 80.586-7.34 109l1.215 9.695-1.503 1.499-1.507 1.498-30.63 1.298-30.633 1.302-13.29-0.77c-11.096-0.637-59.275-4.372-92.159-7.142l-8.353-0.704-0.786 2.045c-1.267 3.32 1.555 38.384 4.058 50.302l2.303 10.979 3.993 8.672c4.98 10.79 9.838 17.5 15.832 21.843l4.64 3.36 4.412-0.594 4.417-0.59 12.713 5.907c6.99 3.246 13.901 5.906 15.356 5.906 1.46 0 9.218 1.328 17.244 2.958 16.868 3.416 44.775 7.667 67.191 10.227 29.25 3.347 37.113 6.247 51.495 19l9.983 8.847 4.578 7.514a276.9 276.9 0 0 0 8.563 13.132c6.247 8.808 5.998 9.166-17.764 25.807-59.908 41.953-128.079 70.092-198.215 81.813-27.195 4.544-33.622 4.36-28.908-0.83 1.298-1.428 2.683-3.975 3.08-5.657l0.721-3.058-2.228-2.722-2.237-2.717-2.053 1.253c-1.132 0.69-3.255 3.522-4.718 6.291-1.464 2.766-3.43 5.885-4.374 6.925-0.943 1.04-1.712 2.46-1.712 3.15 0 2.944-35.51 5.491-58.952 4.229z m50.86-12.141c0-1.258 1.071-4.386 2.377-6.95l2.381-4.667 4.845-2.201c2.665-1.21 5.754-2.211 6.868-2.224 2.355-0.03 2.6-1.298 0.634-3.264l-1.385-1.384-5.26 0.004h-5.26l-3.7 2.259c-2.036 1.24-4.562 3.927-5.619 5.963l-1.913 3.709 0.598 4.482c0.935 6.96 5.435 10.503 5.435 4.273z m20.228-46.125c50.433-5.531 74.138-27.152 78.682-71.749l0.773-7.597-1.433-8.51-1.437-8.515-3.037-2.778c-3.9-3.574-16.12-12.486-23.678-17.27a122.352 122.352 0 0 1-11.058-8.091c-2.852-2.403-6.583-5.238-8.292-6.3-1.712-1.061-5.963-5.483-9.445-9.825-3.482-4.343-8.493-9.454-11.131-11.359a105.995 105.995 0 0 1-8.231-6.65c-1.883-1.747-4.08-3.188-4.88-3.197-1.333-0.022-9.913-5.23-13.255-8.052-0.769-0.646-2.084-1.18-2.923-1.18-0.838 0-2.721-0.83-4.18-1.856-3.823-2.678-15.536-8.51-17.126-8.528-0.743-0.009-2.827-0.76-4.627-1.669-4.997-2.53-22.695-8.951-24.653-8.947-0.956 0-5.216-0.795-9.467-1.77l-7.732-1.777-4.404 2.708c-6.54 4.02-17.466 15.22-19.428 19.917-0.944 2.259-2.416 4.53-3.277 5.042-0.856 0.511-2.031 1.791-2.612 2.848-0.577 1.058-2.656 3.683-4.622 5.833-1.962 2.153-5.033 6.413-6.829 9.475-3.582 6.108-24.915 27.808-33.64 34.208-9.016 6.623-15.26 13.04-17.199 17.685l-1.826 4.368 1.293 4.867c3.845 14.487 26.846 43.854 46.746 59.678 9.812 7.806 19.769 12.983 36.41 18.93l14.447 5.163 12.713 2.386c6.999 1.31 13.761 2.616 15.028 2.896 4.596 1.01 44.169 0.73 54.33-0.384z m-163.36-498.948c2.773-2.508 2.686-6.759-0.202-9.646-2.992-2.993-4.124-2.914-7.567 0.524-6.312 6.317 1.163 15.098 7.768 9.122zM542.01 664.747l-7.453-1.066-6.99-3.338c-3.849-1.835-8.528-4.937-10.398-6.894l-3.403-3.552 1.341-1.341c0.743-0.743 3.312-2.036 5.715-2.883l4.373-1.547 13.438 1.258 13.443 1.263 8.519-1.145c4.688-0.629 10.332-1.061 12.538-0.965l4.02 0.174 0.401-2.022 0.402-2.023h-4.194c-2.31 0-7.68-0.511-11.935-1.136-4.255-0.629-14.496-1.979-22.761-2.997-27.567-3.408-53.478-11.28-50.896-15.461l0.611-0.992 6.65 1.853 6.644 1.856 16.763 0.005 16.759 0.009 6.356-1.678 6.361-1.678 12.858 0.175 12.857 0.184 3.648 1.887c2.01 1.035 7.93 2.992 13.15 4.342l9.502 2.451 11.328-0.07 11.324-0.07-0.415 1.246c-0.664 1.987-7.903 5.308-17.16 7.872-11.263 3.12-16.877 8.362-10.005 9.345l2.59 0.371 0.368 1.91 0.362 1.909-3.451 3.927c-1.892 2.158-6.221 5.33-9.611 7.047l-6.17 3.124-15.01-0.145c-8.257-0.078-18.367-0.62-22.469-1.21z m164.851-129.268l-5.46-3.464-5.213 1.17-5.212 1.167-7.759-1.193c-4.264-0.655-11.14-2.201-15.268-3.43l-7.515-2.236-4.81-4.967c-2.647-2.73-6.466-7.803-8.493-11.272l-3.682-6.312-1.73-8.14-1.735-8.138 0.734-10.114 0.73-10.114h-1.18c-2.154 0-7.195 9.013-9.786 17.501-1.402 4.596-3.233 8.585-4.063 8.865l-1.507 0.502 0.45-8.519 0.445-8.523 3.54-7.515c8.868-18.833 30.72-36.903 53.049-43.875l8.091-2.525 12.77-0.656 12.765-0.655 8.017 1.398c4.413 0.765 8.55 1.822 9.196 2.35 0.647 0.525 3.124 1.761 5.5 2.744l4.326 1.791 3.355-2.826c1.848-1.556 3.971-2.827 4.718-2.827h1.363l-0.773 6.169-0.769 6.173 8.633 5.378c10.878 6.78 17.864 9.965 21.93 9.995l3.177 0.027v2.228c0 3.333-4.509 6.256-14.482 9.401l-8.948 2.823-1.441 2.31c-0.795 1.268-2.342 6.082-3.439 10.695-1.096 4.61-2.892 9.555-3.988 10.979-1.101 1.429-3.465 5.33-5.26 8.668-1.796 3.337-3.757 6.072-4.36 6.072h-1.097l0.721-1.887c0.398-1.035 1.306-4.194 2.018-7.025l1.294-5.142-0.647-7.715c-0.354-4.238-1.813-10.835-3.237-14.649l-2.595-6.933-3.382-3.163c-3.36-3.137-11.813-6.496-13.106-5.203-0.371 0.367 0.725 4.727 2.438 9.681l3.11 9.013-0.515 12.176-0.511 12.175-2.604 6.501c-1.429 3.582-5.404 10.232-8.825 14.784l-6.23 8.279 1.997 0.707c1.1 0.394 2.91 1.495 4.023 2.447l2.023 1.739v6.575h-2.665c-1.464 0-5.12-1.556-8.126-3.465z m-34.544-49.192l2.57-1.8v-7.868l-2.535-2.36c-3.206-2.992-7.217-3.01-10.179-0.043l-2.315 2.311v7.96l2.568 1.8c1.412 0.987 3.64 1.8 4.946 1.8 1.306 0 3.53-0.813 4.945-1.8z m57.886 46.357c-2.293-1.555-4.478-3.635-4.849-4.614l-0.686-1.782 2.49-2.32c1.368-1.275 2.783-2.315 3.137-2.302 2.15 0.061 9.943 5.579 10.267 7.265l0.393 2.023-2.696 2.245c-3.394 2.831-3.11 2.849-8.056-0.515zM774.87 397.19c-11.962-7.234-21.678-10.755-41.613-15.09l-8.09-1.756-19.075-0.17-19.07-0.166-14.582 3.18c-8.021 1.748-16.208 3.177-18.205 3.177h-3.626l-2.311-2.311-2.311-2.312v-10.06l2.612-3.88c3.718-5.514 11.525-11.119 18.533-13.307l6.02-1.88 14.49-0.61 14.496-0.604 12.093 2.023c6.65 1.114 17.388 3.508 23.862 5.321l11.774 3.299 9.035 5.334c9.428 5.57 21.394 14.753 27.816 21.35l3.757 3.858v3.014c0 6.99-5.719 7.571-15.605 1.59z" fill="#C68878" p-id="11799"></path><path d="M471.953 1020.888c-53.954-4.163-110.346-18.847-162.911-42.42-33.251-14.916-82.649-45.165-82.649-50.613v-1.73l8.755-5.714c4.815-3.146 33.924-18.235 64.689-33.535 30.764-15.303 57.383-29.008 59.153-30.459 1.773-1.45 5.076-3.757 7.344-5.129 2.271-1.367 5.128-3.6 6.356-4.958 4.286-4.74 15.531-8.926 15.531-5.784 0 0.59-1.284 2.595-2.857 4.464-4.015 4.771-5.234 8.607-5.234 16.466v6.816l2.316 6.194c7.623 20.372 35.67 53.81 56.36 67.192 12.54 8.117 37.76 17.562 55.76 20.891 5.4 0.997 12.778 2.386 16.391 3.08l6.57 1.267 22.906-0.751c71.547-2.342 99.293-22.285 103.876-74.67l0.76-8.669-1.367-7.514c-2.346-12.931-9.109-24.592-20.254-34.92l-4.626-4.28 3.6-0.053 3.6-0.044 10.73 5.33 10.729 5.33 7.632 0.979c4.198 0.541 12.805 2.075 19.127 3.407 13.123 2.766 25.513 4.657 52.66 8.039 26.344 3.28 37.66 5.5 45.016 8.825l6.291 2.84 6.466 6.033c3.552 3.315 7.82 7.151 9.48 8.519 1.66 1.371 5.186 6.055 7.83 10.406a279.12 279.12 0 0 0 8.767 13.504l3.967 5.592-1.21 2.263c-2.569 4.806-37.414 28.773-62.334 42.88-51.804 29.331-116.012 50.878-171.91 57.693-13.01 1.586-14.238 1.267-11.455-2.98l1.887-2.883v-5.299c0-6.308-2.088-10.756-6.981-14.876l-3.596-3.027h-4.264c-5.622 0-11.795 3.416-14.504 8.02l-2.176 3.714v9.258l2.25 3.014c1.237 1.66 2.87 3.22 3.626 3.473l1.372 0.455v-3.674c0-5.33 3.154-11.158 7.484-13.836 6.728-4.155 9.187-2.578 6.204 3.975l-1.342 2.94h-1.87c-1.026 0-3.031 0.813-4.451 1.81l-2.578 1.808 0.297 4.683 0.306 4.683-5.203 1.582-5.203 1.581-27.742-0.144c-15.26-0.083-32.975-0.55-39.371-1.048z m57.86-270.339l-8.1-0.655-4.43-4.041c-2.438-2.228-5.164-4.46-6.06-4.972-5.46-3.089 0.603-3.993 9.236-1.376 5.522 1.673 10.166 2.272 26.55 3.425 4.368 0.306 8.58 1.088 9.353 1.73 0.777 0.647 1.834 0.786 2.359 0.315l0.943-0.857-0.786 1.376-0.786 1.372 2.359-0.175 2.368-0.179-0.546-1.428-0.55-1.424 1.602 0.611 1.604 0.616-0.93 2.508-0.936 2.503-2.175 0.044c-1.197 0.022-2.823 0.441-3.618 0.935l-1.441 0.89v-1.039c0-0.568-1.433-0.865-3.18-0.655a114.418 114.418 0 0 1-22.836 0.48z m152.006-4.814a3872.122 3872.122 0 0 0-36.99-2.774c-33.01-2.347-58.056-5.06-59.476-6.449l-1.11-1.079 1.686-1.516c0.927-0.83 6.366-3.233 12.089-5.338 31.21-11.482 87.209-44.265 115.872-67.834 11.447-9.41 29.577-29.009 40.953-44.251l6.99-9.371 2.761-0.69c1.516-0.38 3.539-0.394 4.491-0.027l1.74 0.664-0.023 3.216c-0.008 1.769-1.057 7.116-2.324 11.883-1.267 4.77-3.39 15.172-4.71 23.12l-2.402 14.447-0.97 28.322-0.97 28.319 1.04 8.09c0.568 4.452 1.053 10.564 1.075 13.583l0.034 5.492-1.446 0.157c-5.163 0.559-64.557 3.373-66.173 3.132-0.638-0.092-6.099-0.585-12.141-1.096z m-372.2-10.883a344.394 344.394 0 0 1-20.228-3.989c-5.723-1.34-16.248-3.433-23.386-4.652-15.13-2.587-24.116-4.404-49.437-10.01l-18.493-4.093-4.622-2.49-4.627-2.49-3.42-9.825-3.421-9.826-0.219-23.115c-0.253-26.13-2.263-69.389-4.028-86.694-2.332-22.83-3.656-53.78-3.787-88.423l-0.131-35.256 2.07-18.498c3.474-31.04 5.322-42.14 9.62-57.794 2.272-8.266 5.606-20.76 7.419-27.768 1.808-7.007 5.692-20.27 8.628-29.476a2471.457 2471.457 0 0 0 6.566-20.778c0.669-2.228 2.95-8.209 5.068-13.294a961.866 961.866 0 0 0 8.056-20.227 327.133 327.133 0 0 1 8.663-20.228c2.447-5.09 6.265-14.19 8.484-20.227 16.672-45.378 34.5-76.165 60.516-104.514 9.835-10.716 9.839-10.542-0.187-7.916l-7.781 2.04-1.643-2.245c-3.63-4.963-0.061-10.38 19.895-30.193 22.679-22.517 45.93-39.096 76.21-54.343l19.209-9.672 18.082-5.933 18.082-5.929 14.465-2.28 14.47-2.276 33.521 0.502 33.522 0.507 12.713 3.582 12.713 3.583 15.028 7.514 15.029 7.523 9.825 8.226a1287.343 1287.343 0 0 1 13.692 11.595c4.696 4.098 4.338 4.09 12.573 0.306l6.676-3.067 11.83-0.529c15.073-0.677 15.802-0.463 26.16 7.768l8.65 6.876 0.376 2.657 0.376 2.656 21.962 10.979 21.962 10.983 8.095 6.029 12.132 9.03c26.746 19.921 54.898 61.52 61.818 91.338l1.76 7.601 0.464 15.824 0.467 15.82 2.316 6.937c1.28 3.814 5.002 13.958 8.274 22.543 6.636 17.383 13.936 44.836 17.056 64.15l2.053 12.714-0.026 34.679-0.026 34.675-1.412 6.81c-1.917 9.25-9.506 29.678-14.583 39.245l-4.163 7.842 0.105 4.264c0.218 8.882-8.205 32.303-13.355 37.143l-2.709 2.543-0.778-1.258c-0.428-0.69 0.612-11.525 2.307-24.072l3.08-22.814-0.56-19.07-0.567-19.074-3.622-12.486c-20.786-71.595-70.949-133.395-151.041-186.087-10.223-6.728-21.595-14.679-25.278-17.68l-6.693-5.453-5.351-1.026-5.357-1.027-17.335 1.289-17.344 1.289-13.342 3.285-13.342 3.285-16.13 6.925c-19.703 8.458-33.875 16.195-51.538 28.126l-13.443 9.078-11.9 12.416c-10.25 10.69-16.601 18.345-27.008 32.517a103.583 103.583 0 0 1-5.334 6.492c-4.897 5.443-11.634 17.886-13.443 24.828l-1.651 6.334 1.887 1.376c1.036 0.76 5.872 1.674 10.747 2.032 4.871 0.363 16.4 1.503 25.619 2.543l16.758 1.891 9.249 2.862c20.044 6.203 30.542 15.662 29.275 26.365l-0.376 3.207-2.97 2.206-2.971 2.206-7.986-3.01c-4.395-1.651-15.54-5.133-24.771-7.737l-16.785-4.736-20.227-0.541-20.228-0.542-4.862 1.31c-2.674 0.717-6.41 2.609-8.3 4.199l-3.439 2.896-1.8 5.457c-0.992 2.997-2.328 8.257-2.97 11.678l-1.171 6.225 1.371 4.587 1.376 4.579 2.381 1.494 2.386 1.494 9.825 0.752c24.199 1.856 38.437 5.233 52.285 12.394l9.555 4.936 11.577 11.6 11.577 11.603 4.457 9.126 4.456 9.131 1.18 8.397c0.646 4.618 0.825 9.314 0.392 10.441l-0.777 2.036-1.69-1.69c-0.931-0.927-2.47-4.675-3.422-8.332-3.215-12.342-11.568-23.377-24.015-31.726-5.526-3.709-6.535-2.682-3.503 3.556 1.319 2.713 3.04 8.039 3.827 11.822l1.433 6.89-0.708 8.37-0.704 8.37-3.394 7.484c-6.038 13.312-15.736 22.486-28.288 26.768l-5.395 1.835-11.486-1.333-11.48-1.337-4.636 1.39-4.631 1.389-1.774-1.468c-0.974-0.808-1.77-2.403-1.77-3.547v-2.08l-6.211-5.928-6.213-5.929-3.853-8.322-3.853-8.327 0.043-12.137c0.022-6.675 0.612-14.084 1.302-16.47 1.416-4.867 0.284-5.684-2.333-1.686-3.023 4.609-5.124 17.322-5.338 32.316l-0.131 8.96h-1.228c-0.677 0-3.95-2.73-7.274-6.073l-6.038-6.063-4.578-11.272c-4.819-11.861-5.61-12.879-6.737-8.667-1.271 4.74-0.76 9.79 2.097 20.703 1.551 5.937 3.412 15.929 4.138 22.202l1.315 11.411-1.407 16.746-1.403 16.75 0.647 12.874 0.647 12.88 2.437 8.09c6.038 20.04 8.707 32.076 8.257 37.253-0.065 0.778-1.437 2.28-3.05 3.338l-2.926 1.918-4.483-2.023-4.486-2.023-1.39 0.856-1.389 0.861 0.59 4.373 0.585 4.378 3.806 5.592c14.923 21.913 43.425 45.317 73.47 60.31l14.036 7.008 2.35 2.988 2.35 2.988-0.646 6.602c-0.358 3.63-1.223 7.322-1.922 8.204l-1.267 1.603-23.137-0.825c-12.722-0.45-27.108-1.272-31.966-1.826-4.854-0.55-19.288-1.368-32.076-1.818l-23.242-0.817-0.157 1.617c-0.087 0.89-0.218 4.727-0.293 8.527l-0.13 6.907-1.735 0.219c-0.952 0.118-6.156-0.48-11.56-1.341z m91.91-268.749l2.105-2.324v-7.235l-2.15-1.572c-1.179-0.861-3.32-1.569-4.748-1.569h-2.604l-1.8 2.57c-5.334 7.614 3.08 16.889 9.196 10.135z m171.635 170.972c-32.49-1.577-74.715-7.92-71.539-10.747 0.896-0.795 70.04 2.721 79.625 4.045 5.4 0.747 15.44 1.403 22.312 1.46l12.494 0.1-1.852 1.354c-1.879 1.372-12.385 3.478-20.813 4.168-2.542 0.21-11.643 0.04-20.227-0.38z m135.2-103.383l-1.481-1.782 1.223-1.223 1.223-1.224 2.43 0.774 2.424 0.769v4.473h-2.167c-1.197 0-2.84-0.804-3.652-1.782z m-32.237-2.944a104.785 104.785 0 0 1-10.59-2.822l-5.474-1.818-5.208-5.566a50.503 50.503 0 0 1-12.341-23.128l-1.481-6.273 0.76-13.325 0.764-13.32-3.52 3.372c-3.47 3.32-10.39 15.71-10.39 18.598a3.058 3.058 0 0 1-1.337 2.307l-1.337 0.83 0.704-5.977 0.708-5.972 3.477-7.287 3.478-7.287 6.99-7.623c12.07-13.172 28.095-23.605 43.381-28.236l6.934-2.097 16.758-0.022 16.763-0.017 8.397 3.932 8.397 3.936 3.163-1.586c1.739-0.873 3.63-1.8 4.202-2.066l1.049-0.48-0.677 4.163-0.677 4.163 3.228 2.639c7.475 6.107 23.548 14.749 27.467 14.766 7.435 0.03 1.664 5.697-9.468 9.297-4.451 1.442-8.99 3.451-10.091 4.474l-1.997 1.856-2.333 9.118c-2.424 9.48-3.888 12.254-6.457 12.254h-1.52l-0.73-5.491c-1.25-9.459-4.984-20.463-8.667-25.549l-3.548-4.893-8.768-3.997c-4.823-2.198-8.943-3.998-9.152-3.998-0.21 0 1.738 4.413 4.325 9.808l4.705 9.804 1.232 8.55 1.232 8.55-1.45 8.116c-1.932 10.791-6.554 20.219-13.815 28.157l-5.963 6.518-5.19 2.442-5.19 2.438-7.812-0.127c-4.298-0.07-10.118-0.576-12.931-1.131z m-4.793-43.203c5.308-2.743 6.204-7.645 2.311-12.6l-2.398-3.044h-7.833l-2.36 2.53-2.354 2.529v3.027c0 6.798 6.54 10.712 12.634 7.558z m58.157 41.967c-3.582-3.583-0.616-6.497 4.47-4.391l3.45 1.428-0.353 1.862-0.35 1.86-2.892 0.341c-1.585 0.184-3.534-0.305-4.325-1.1z m-362.533-21.298c-1.974-5.142 1.376-10.018 6.89-10.018h3.036l2.394 2.394 2.394 2.394-1.555 1.87c-3.818 4.6-11.892 6.663-13.159 3.364z m411.38-111.592c-15.946-10.52-39.633-17.492-68.336-20.113l-8.23-0.756-9.11 1.337a430.297 430.297 0 0 0-20.664 3.74c-6.36 1.323-13.787 2.643-16.505 2.93l-4.937 0.525-1.834-1.516-1.827-1.52 0.538-5.61 0.542-5.605 4.5-4.648c5.53-5.723 10.904-8.572 20.35-10.8l7.26-1.712 11.734-0.018 11.735-0.013 13.115 2.268c27.908 4.823 40.883 10.594 60.52 26.929l10.975 9.13 0.686 2.73c1.398 5.567-4.063 6.978-10.512 2.722z" fill="#A66A5D" p-id="11800"></path><path d="M495.142 1021.395c-73.893-3.744-136.83-19.467-197.66-49.367-26.02-12.8-62.312-34.727-68.166-41.198l-1.992-2.201 0.83-1.342c2.691-4.36 30.725-19.21 45.924-24.334 3.758-1.262 8.974-3.652 11.6-5.308 2.625-1.66 13.896-7.492 25.05-12.966s21.962-11.154 24.02-12.617c2.057-1.468 7.566-4.434 12.24-6.597 4.675-2.158 9.236-4.814 10.132-5.898 0.891-1.088 4.229-3.643 7.41-5.68 3.18-2.04 8.038-5.596 10.799-7.902 2.76-2.307 6.055-4.194 7.326-4.194h2.303l-2.993 3.556c-3.888 4.626-4.565 7.645-3.875 17.318l0.568 7.973 4.609 9.563c20.817 43.224 62.08 74.457 110.32 83.5 5.308 0.992 12.158 2.315 15.225 2.945 3.067 0.629 15.29 1.122 27.165 1.1l21.582-0.034 10.983-1.59c50.739-7.349 74.483-30.862 77.1-76.358l0.598-10.402-1.289-6.894c-0.707-3.792-2.822-10.166-4.696-14.168l-3.403-7.278-6.003-6.348-6.003-6.348h1.792c0.982 0 6.225 2.342 11.651 5.2l9.86 5.202 3.832 0.018c2.105 0.013 8.772 1.066 14.81 2.35 16.352 3.469 57.672 10.005 72.827 11.512 27.349 2.726 33.303 4.98 47.515 18.008l9.698 8.89 4.12 7.065c2.263 3.888 5.776 9.349 7.803 12.15 2.022 2.795 3.683 6.01 3.683 7.146v2.062l-4.915 3.941c-59.398 47.659-155.939 87.55-230.308 95.17l-7.882 0.807 0.822-2.778c0.45-1.53 1.114-4.67 1.472-6.981l0.651-4.199-1.31-3.975c-0.721-2.185-3.08-5.684-5.239-7.777l-3.923-3.805-5.046-0.568-5.05-0.568-4.146 1.73c-2.28 0.953-5.566 3.596-7.3 5.867l-3.155 4.133 0.044 5.898 0.048 5.898 2.438 4.133 2.438 4.133-0.926 0.895c-1.07 1.04-34.029 2.123-46.008 1.516z m189.565-276.923c-56.969-3.521-94.92-6.964-96.737-8.781l-0.983-0.983 9.83-3.735c32.263-12.255 90.315-46.213 116.637-68.227 12.525-10.477 28.2-27.034 39.886-42.124l9.546-12.32h6.78v2.621c0 1.442-1.026 6.33-2.28 10.861-1.254 4.53-3.552 16.221-5.107 25.986l-2.822 17.745-0.328 26.589c-0.175 14.622 0.105 31.918 0.633 38.432l0.957 11.848-1.594 0.179c-5.575 0.633-9.878 0.834-32.224 1.516-13.67 0.415-25.632 0.865-26.589 1.005-0.952 0.13-7.973-0.14-15.605-0.612z m-377.68-11.402c-6.823-1.197-16.448-3.176-21.38-4.391a260.833 260.833 0 0 0-17.641-3.595c-10.77-1.713-37.292-7.222-52.425-10.879l-11.39-2.756-3.058-2.276-3.058-2.272-0.328-2.779c-0.179-1.524-1.428-5.893-2.77-9.707l-2.446-6.938 0.786-27.427 0.787-27.431-1.193-7.248c-1.747-10.616-3.57-31.206-4.683-52.906-0.538-10.485-1.564-21.931-2.28-25.426-0.717-3.495-1.53-13.382-1.805-21.966a9587.98 9587.98 0 0 0-1.04-30.63c-0.882-24.543 2.905-70.358 8.074-97.672 5.028-26.584 6.16-31.726 9.537-43.347a709.692 709.692 0 0 0 5.95-21.962c1.42-5.723 5.623-18.204 9.336-27.741 3.713-9.537 8.327-22.084 10.254-27.886 1.922-5.802 4.818-13.342 6.43-16.759 3.233-6.854 10.914-27.138 15.046-39.738 3.692-11.25 12.137-31.053 19.961-46.811l6.597-13.294 10.63-15.029 10.628-15.028 14.841-14.548c8.161-8.004 16.138-15.234 17.729-16.073 5.692-3.001 20.804-15.763 20.804-17.571 0-2.036-3.932-0.69-12.451 4.255l-8.934 5.186-5.475 0.747-5.474 0.751-1.747-1.455c-0.961-0.8-1.752-2.739-1.752-4.312v-2.861l7.803-8.126c15.823-16.479 35.378-30.158 63.342-44.3l20.861-10.559 18.502-5.994 18.502-5.998 14.836-2.276 14.836-2.28 25.558 0.034c29.742 0.044 37.304 0.848 54.504 5.802l12.665 3.648 13.294 6.79 13.29 6.788 10.983 8.768c6.038 4.823 13.937 11.857 17.54 15.632 3.614 3.774 7.318 6.867 8.24 6.867 0.922 0 2.324 0.778 3.115 1.735 1.892 2.272 5.107 2.202 7.065-0.153l1.564-1.887-4.998-4.308-4.994-4.303 3.11-2.447c4.094-3.22 9.145-4.067 20.36-3.42l9.23 0.537 6.344 6.256 6.343 6.256-0.65 2.6-0.647 2.603 6.09 2.818c3.35 1.547 13.373 6.086 22.272 10.079l16.182 7.265 8.672 6.05c4.766 3.33 11.52 8.026 15.006 10.438 27.017 18.68 53.963 57.449 61.303 88.183l1.516 6.361-0.398 7.514a411.275 411.275 0 0 0-0.445 16.182l-0.044 8.668 5.57 11.56c20.013 41.52 28.681 78.157 30.201 127.725l0.73 23.696-1.73 12.796-1.73 12.792-4.675 14.373c-2.577 7.908-6.51 18.013-8.75 22.46-2.242 4.452-4.08 9.13-4.08 10.398-0.023 7.82-10.014 36.413-12.727 36.413h-1.289l0.669-4.91c2.158-15.863 4.054-35.79 4.705-49.415l0.743-15.606-1.857-8.855c-15.758-75.16-67.672-142.78-153.807-200.343-12.08-8.073-24.303-16.627-27.165-19.008-2.861-2.386-6.453-5.003-7.986-5.815l-2.783-1.485-22.648 0.703c-35.819 1.11-43.272 2.709-77.545 16.623-14.264 5.789-31.905 15.649-42.552 23.784-3.617 2.76-11.52 8.318-17.562 12.341-19.022 12.67-49.455 44.68-58.096 61.089l-5.269 10c-1.005 1.909-2.044 6.422-2.306 10.035l-0.481 6.57 3.893 0.595c2.14 0.332 12.796 0.9 23.678 1.271l19.79 0.677 12.854 2.158 12.857 2.163 7.357 3.442c7.243 3.39 20.808 11.088 25.894 14.697l2.599 1.848v9.056l-2.254 1.206-2.255 1.21-7.654-2.883c-8.938-3.364-34.15-10.459-43.32-12.193-3.495-0.66-15.2-1.241-26.008-1.29l-19.65-0.086-10.979 2.01c-6.042 1.1-12.329 2.686-13.971 3.52-6.226 3.155-13.862 16.016-17.113 28.817-1.293 5.085-3.67 12.486-5.286 16.448-1.612 3.958-2.931 7.536-2.931 7.951 0 2.215 24.124-4.001 24.356-6.278 0.93-9.187 1.463-9.655 5.692-5.024l3.399 3.727 2.639-0.55c1.45-0.306 6.029-0.87 10.179-1.254l7.55-0.7 10.37 1.228c29.69 3.521 44.335 10.31 62.793 29.105l7.23 7.361 5.155 10.402 5.16 10.407 0.555 7.514 0.554 7.514-2.118-6.36c-4.693-14.09-11.814-22.963-26.086-32.504l-7.038-4.705-0.359 1.747c-0.192 0.966 0.913 4.268 2.46 7.34 9.419 18.698 6.335 40.965-7.864 56.754l-5.373 5.972-7.148 3.517-7.147 3.517-18.454-0.463-18.449-0.463-0.49-1.573c-0.266-0.865-3.468-4.705-7.107-8.532-7.453-7.838-10.586-13.338-12.705-22.338l-1.454-6.181 0.62-8.847c0.786-11.28 2.04-15.269 7.746-24.732 5.68-9.41 5.692-8.964-0.297-8.964h-4.937l-4.294 2.918-4.295 2.918-4.578 9.507c-2.517 5.229-5.475 12.887-6.571 17.02-1.097 4.133-2.416 7.995-2.927 8.585l-0.935 1.07-3.102-6.85-3.102-6.85-1.258-9.825-1.258-9.826-4.85-0.35-4.84-0.353-1.673 2.665c-7.978 12.713-9.061 89.21-1.822 128.655l2.337 12.714-0.358 7.514-0.354 7.514-2.604 0.371c-1.433 0.201-3.18 1.446-3.888 2.766l-1.28 2.398 0.603 4.5 0.603 4.509 4.915 8.33c6.898 11.696 17.453 24.055 33.818 39.586l14.068 13.351 11.227 7.458c6.174 4.098 18.009 10.891 26.3 15.094l15.081 7.64 0.734 2.928c0.407 1.603 0.271 5.84-0.297 9.414l-1.03 6.492-20.228-0.362c-11.123-0.201-24.649-0.874-30.053-1.49-5.404-0.62-20.8-1.442-34.216-1.835l-24.386-0.699-1.04 1.617c-0.572 0.887-1.044 4.687-1.044 8.444v6.829l-1.154 0.297c-0.638 0.162-6.74-0.686-13.569-1.887z m96.262-267.238l2.32-3.757-0.695-2.883c-0.996-4.172-3.897-6.938-7.26-6.938h-2.928l-2.674 2.512-2.678 2.512v8.716l2.57 1.8c1.415 0.987 4.023 1.796 5.797 1.796h3.232z m277.954 64.265c-1.272-0.267-5.937-1.333-10.363-2.36l-8.052-1.878-5.627-5.264c-12.022-11.245-18.654-34.382-13.687-47.75 0.546-1.473 1.35-4.627 1.787-7.008l0.786-4.338h-1.743c-0.961 0-3.66 1.682-5.998 3.735l-4.255 3.735 2.066-3.988c9.991-19.324 39.616-36.628 66.16-38.642l9.516-0.721 7.82 1.236c4.303 0.682 11.206 2.761 15.334 4.622 4.137 1.862 8.559 3.268 9.83 3.124l2.311-0.262 0.345 2.311 0.34 2.311 11.22 7.274c6.164 3.998 13.425 7.877 16.125 8.62 7.667 2.101 6.343 3.81-6.068 7.837-10.367 3.364-11.52 4.561-14.356 14.867-3.246 11.809-4.959 12.552-6.422 2.787-0.454-3.005-1.861-8.243-3.132-11.642l-2.316-6.178-7.112-8.003-7.121-8-6.934-2.271c-6.723-2.202-9.873-2.81-13.119-2.534l-1.56 0.13 5.606 6.143c6.99 7.646 11.424 16.589 13.145 26.462l1.324 7.61-1.359 9.083-1.363 9.078-4.037 7.724c-4.823 9.218-11.49 16.125-19.34 20.04l-5.758 2.866-5.841-0.131c-3.211-0.075-6.881-0.354-8.152-0.625z m-6.65-43.854l2.604-2.91v-3.245c0-4.282-3.814-8.978-8.038-9.909l-3.386-0.742-2.665 1.424c-7.558 4.02-7.833 14.657-0.48 17.912l3.586 1.586 2.892-0.603c1.586-0.328 4.059-1.91 5.487-3.513z m-303.69 18.629" fill="#47332F" p-id="11801"></path></svg>