<?xml version="1.0" standalone="no"?><!DOCTYPE svg PUBLIC "-//W3C//DTD SVG 1.1//EN" "http://www.w3.org/Graphics/SVG/1.1/DTD/svg11.dtd"><svg t="1747485496160" class="icon" viewBox="0 0 1024 1024" version="1.1" xmlns="http://www.w3.org/2000/svg" p-id="10597" xmlns:xlink="http://www.w3.org/1999/xlink" width="200" height="200"><path d="M164.864 616.704c0-57.856 34.56-115.925 102.187-161.707 67.413-45.653 163.285-75.52 271.786-75.52 108.416 0 204.374 29.867 271.702 75.52 34.133 23.04 59.818 49.323 76.928 77.056 20.778-37.973 29.738-78.293 24.917-118.485a18.347 18.347 0 0 1 0.725-7.765 412.715 412.715 0 0 0-44.586-34.774c-86.571-58.709-203.35-93.269-329.728-93.269s-243.115 34.56-329.686 93.27C122.795 429.482 62.165 515.455 62.165 616.703s60.587 187.264 146.944 245.76c86.528 58.581 203.264 93.227 329.686 93.227s243.2-34.646 329.728-93.27c86.314-58.453 146.901-144.469 146.901-245.717 0-64.384-24.49-122.581-64.512-171.477-2.133 45.098-18.133 88.405-44.757 127.786 4.394 14.464 6.613 29.099 6.613 43.691 0 57.899-34.603 115.968-102.23 161.75-67.37 45.653-163.285 75.52-271.743 75.52s-204.374-29.867-271.744-75.52c-67.627-45.782-102.187-103.851-102.187-161.707z" fill="#3762FF" p-id="10598" class="custom-cursor-on-hover"></path><path d="M164.01 498.517c-27.391 77.014-20.906 146.432 14.72 196.267 35.627 49.835 99.585 78.933 182.017 78.933 82.261-0.042 178.133-29.61 266.197-91.392S774.997 540.8 802.347 463.957c27.392-77.013 20.906-146.432-14.678-196.266-35.626-49.835-99.584-78.934-182.016-78.934-82.261 0-178.133 29.611-266.24 91.392-88.021 61.739-148.053 141.526-175.36 218.368z m-98.474-34.389C100.864 364.8 175.488 268.373 279.04 195.669 382.72 123.008 499.328 85.333 605.61 85.333c106.198 0 206.891 38.059 267.307 122.624 60.416 84.523 63.232 191.275 27.947 290.432-35.328 99.328-109.952 195.755-213.59 268.416C583.68 839.51 467.073 877.184 360.748 877.184c-106.155 0-206.848-38.059-267.264-122.581C33.024 670.08 30.25 563.328 65.536 464.17z" fill="#1041F3" p-id="10599"></path></svg>