<?xml version="1.0" standalone="no"?><!DOCTYPE svg PUBLIC "-//W3C//DTD SVG 1.1//EN" "http://www.w3.org/Graphics/SVG/1.1/DTD/svg11.dtd"><svg t="1747485525792" class="icon" viewBox="0 0 1024 1024" version="1.1" xmlns="http://www.w3.org/2000/svg" p-id="12517" xmlns:xlink="http://www.w3.org/1999/xlink" width="200" height="200"><path d="M461.888 887.36l-9.792-370.688C432.384 509.44 512 415.744 544.704 424c95.872-24.128 200.128-176.704 9.856-289.92-575.744 0-512.64 707.904-92.672 753.28z" fill="#B3DDF2" p-id="12518"></path><path d="M460.032 887.168c-171.52-39.424-339.456-279.424-134.08-494.912 47.168-41.6-47.04-164.288-124.224-96.64-205.056 283.584 64.64 592.32 258.304 591.552z" fill="#0055E9" p-id="12519"></path><path d="M432.384 530.496c-4.736 3.392 0-1.984 0 0z m0 0v29.568c0 3.904-5.504 30.144-7.872 41.408l29.568 63.104s19.712 5.888 21.696 7.872c1.92 1.92 11.648 3.328 15.744 3.968l41.408 25.6 69.056-9.856 88.704-27.584 82.816-71.04 25.6-43.328 21.76-110.464-3.968-51.2v-45.44l-45.376-82.752-23.68-29.632-41.344-37.44-35.52-21.696-9.856-5.888-11.84-3.968-21.696-7.872-68.992-17.728c149.824 49.28 161.664 201.088 118.272 274.048C633.6 483.2 539.52 525.248 448.192 516.672l-15.808 13.824z" fill="#00BCFF" p-id="12520"></path><path d="M471.808 887.424c134.08 35.456 427.776-92.544 423.936-366.784 9.856-122.24-104.32-365.504-289.92-374.656 206.976 42.112 286.016 422.208 17.856 516.608-134.144 33.536-183.424-68.992-173.568-141.952-137.984 6.976-211.2 302.848 21.696 366.72z" fill="#0055DF" p-id="12521"></path></svg>