<?xml version="1.0" standalone="no"?><!DOCTYPE svg PUBLIC "-//W3C//DTD SVG 1.1//EN" "http://www.w3.org/Graphics/SVG/1.1/DTD/svg11.dtd"><svg t="1747485277037" class="icon" viewBox="0 0 1024 1024" version="1.1" xmlns="http://www.w3.org/2000/svg" p-id="15974" xmlns:xlink="http://www.w3.org/1999/xlink" width="200" height="200"><path d="M758.56 418.88s35.12-34.48 75.84-33.04c43.52 1.52 75.44 25.12 86 61.2 10.48 36 11.6 49.92 19.52 61.6 7.92 11.6 18 19.92 18 26.24s-7.52 14.64-17.68 18.8-27.76-0.72-27.76-0.72-4.48 22.56-21.04 27.76c-16.48 5.28-31.52 3.36-31.52 3.36l-21.04-81.44s14.72-22.32 3.04-37.92c-15.76-20.96-43.68-1.44-43.68-1.44l-39.68-44.4zM547.44 750.56s-6 40.16-13.52 53.28c-7.52 13.12-10.88 15.76-10.88 15.76s-0.4 66.08-0.4 84.48c0 14.32 3.68 35.28-4.48 41.68-10.16 7.92-50.32 8.24-55.92 0s15.04-26.64 15.76-32.32c0.72-5.6-2.24-61.6-2.64-72.48-0.4-10.88-18.88-82.4-18.88-82.4l90.96-8zM790.4 804.24c3.04 4.72 7.04 57.84 7.76 74.32 0.72 16.48 0.72 43.2-0.4 47.28-1.12 4.16-25.92 24.4-16.88 31.92 9.04 7.52 56.72 3.04 60.48-3.76 3.76-6.72 3.36-144.88 3.36-156.16 0-8.64-14.72-44-20.08-52-5.2-7.84-37.2 53.68-34.24 58.4z" fill="#957155" p-id="15975"></path><path d="M165.04 135.2s-9.52-15.52-20-29.6c-12.08-16.16-25.36-30.4-24.8-35.76 0.64-6.08 10.4-3.92 10.4-3.92l36 27.6 29.28 40.56-30.88 1.12zM196.88 43.12c-2 8.48 15.68 28.88 29.04 61.68 5.44 13.36 10.16 48.96 10.16 48.96l21.36 10.16s-8.48-48.4-16.88-70.4-38.32-73.44-43.68-50.4z" fill="#DB7C60" p-id="15976"></path><path d="M193.76 120.56S171.2 80 153.2 70.48c-18-9.6-31.52-5.92-30.16-2.56 2.48 5.92 24.8 15.2 35.44 31.52s28.4 44.24 28.4 44.24l6.88-23.12zM198.88 39.52c-0.72-11.28 32.08 2.24 50.72 27.6s23.12 41.68 24.24 70.4-20.8 27.6-20.8 25.92-1.6-35.44-16.32-73.76C226.72 64 199.44 48.48 198.88 39.52z" fill="#FFD3B2" p-id="15977"></path><path d="M158.32 156.8s-20.64 12.4-40.56 19.92c-16.24 6.08-51.52 18.24-48.72 34 1.12 6.32-7.04 14-3.12 25.6 3.44 10.24 10 11.04 12.4 12.4 3.92 2.24 12.08 18 30.4 19.6 20.56 1.76 32.64-6 32.64-6L189.84 304l68.72-64.96 4.88-71.68-49.52-18.8-55.6 8.24z" fill="#FFD3B2" p-id="15978"></path><path d="M93.52 228.72s16.32-9.84 23.12-13.2c6.72-3.36 6.16-17.2-6.72-12.08-12.96 5.04-22.24 10.96-22.24 10.96s-10.4-8.16-14.08-11.84-10.72 4.16-3.68 13.44c7.04 9.36 10.08 12.16 10.08 12.16s0 6.16-0.32 8.48-15.2-9.84-14.96-2c0.32 7.92 2 11.84 10.72 12.96 8.72 1.12 12.4 1.68 12.4 1.68s14.08 5.6 26.72 5.36 30.4-14.96 25.04-20.24c-5.36-5.36-18.32 5.6-29.84 5.36-11.52-0.32-15.2-2-15.2-2l-1.04-9.04z" fill="#7B5B52" p-id="15979"></path><path d="M185.36 182.8s9.28-9.6 19.44-3.92c10.16 5.6 7.92 22.56-2.56 25.04-9.84 2.4-17.2-4.48-17.2-4.48s-20.56 2.8-19.68-7.92c0.72-9.28 20-8.72 20-8.72z" fill="#2B2A32" p-id="15980"></path><path d="M228.16 111.6s-37.2-2.48-60.8 13.36-31.52 26.24-27.44 33.44 15.04 7.12 28.88 6c13.92-1.12 29.28-3.04 43.92-1.84 14.64 1.12 23.28 4.48 28.56 7.52 5.28 3.04 13.12 9.76 13.12 9.76s-15.36 20.96-27.44 39.76c-12 18.8-19.12 31.12-25.52 45.84-4.64 10.72-10.88 25.92-10.88 25.92s-18.4-17.28-22.88-20.24c-4.48-3.04-20.64-12-20.64-12l-7.92 4.88s-1.12 31.92 11.6 67.6 31.92 66.48 31.92 66.48-3.76 56.72 26.64 109.6c16 27.92 51.04 46.96 51.04 46.96s-2.24 37.92 19.92 62.72c22.16 24.8 40.96 24.8 40.96 24.8s2.24 16.88 15.04 43.92c13.12 27.76 29.68 36 29.68 36s-4.48 24 3.04 63.84c6.8 35.92 27.04 54.4 27.04 54.4s2.64 96.48 0 102.48-24.8 29.68-20.24 37.52c4.48 7.92 24.8 8.64 34.88 8.64s26.64-3.36 31.12-7.52 5.6-68.72 5.6-80.72 2.64-55.92 2.64-55.92 27.76-12.4 37.52-33.44c9.76-21.04 8.64-37.92 8.64-37.92s33.44 4.16 74.32-7.12c40.96-11.28 82.24-48.4 82.24-48.4s22.88 40.96 33.76 60.08 31.12 46.16 31.12 46.16 0.4 109.28-1.84 113.76c-2.24 4.48-29.28 36-23.68 42.08 5.6 6 19.52 6.72 34.88 6.4 15.36-0.4 31.12-1.12 34.16-10.16 3.04-9.04 0-28.88 0.72-43.92 0.72-15.04 3.36-96.48 3.36-96.48s43.84-24.48 63.84-75.44c16.56-42.24 16.16-86.32 16.16-86.32s12.4-40.56 14.64-55.6 6.72-44.64-10.88-94.96-57.44-108.48-116.72-132.88c-59.28-24.4-119.04-25.92-170.4-25.52-51.44 0.4-141.52 12-156.16 7.52-14.64-4.48-43.2-46.16-54.08-89.76-10.88-43.52-24-90.88-42.4-112.96s-35.28-29.28-35.28-29.28-9.04 27.44-25.92 15.76c-13.44-9.28-14.24-20.4-15.36-27.84-1.12-7.92-4.48-16.96-4.48-16.96z" fill="#AE957F" p-id="15981"></path><path d="M746.4 810.56c7.28 2.24 29.68-11.6 39.76-21.04 12.4-11.52 19.12-31.52 18-38.32-1.12-6.72-17.68 13.52-22.56 6.4-4.88-7.12 18.08-23.84 26.24-37.2 11.2-18.24 14.32-33.52 9.44-36.48s-22.88 21.44-28.24 13.2c-6.64-10.16 5.36-19.76 17.84-30.72 11.52-10.16 24.24-18.88 30.24-48.16s3.92-72.24-6.56-96.32c-10.48-24-42.64-74.48-102.64-109.44-60.08-34.88-151.68-30.8-188.48-29.68-36.8 1.12-127.68 17.28-142.64 9.76-15.04-7.52-42.08-24-59.28-80.72-17.28-56.72-16.48-86.16-34.56-116-9.04-14.96-23.44-24.56-23.44-24.56s-20.08 36.24-33.2 56.48-35.68 58.16-43.2 112.64c-7.52 54.4 3.12 102 7.68 121.84 9.44 41.28 46.4 65.52 46.4 65.52s6.72-26.72 8.64-34.88c2.8-12 9.04-27.04 17.28-21.76 8.24 5.28-8 71.44-2.08 103.44 7.52 40.72 40.32 41.84 40.32 41.84s3.04-20.64 10.48-30c7.52-9.36 11.28-9.76 14.24-6 3.04 3.76-6.56 34.24-1.52 64.96 7.36 44.48 36.88 67.76 39.12 72.64s-8.72 107.84 48.32 108.72c49.2 0.72 39.04-53.28 39.04-53.28s19.92-7.12 24-35.68-4.16-61.36-8.24-72.08c-8.24-21.36 5.28-24.4 11.6-9.36 6.4 15.04 11.04 28 13.92 45.04 2.88 17.44-1.12 38.64 3.36 40.88 7.36 3.68 39.76 3.76 69.04-10.88s54.8-46.56 54.8-46.56-18.8-47.28-15.36-93.84 18-73.92 24.8-68.32c6.72 5.6-3.04 42.8 4.16 87.12 7.12 44.32 17.28 86 45.84 133.28 28.64 47.28 38.8 64.96 47.44 67.52z" fill="#F8F9FC" p-id="15982"></path></svg>