<?xml version="1.0" standalone="no"?><!DOCTYPE svg PUBLIC "-//W3C//DTD SVG 1.1//EN" "http://www.w3.org/Graphics/SVG/1.1/DTD/svg11.dtd"><svg t="1747485952928" class="icon" viewBox="0 0 1024 1024" version="1.1" xmlns="http://www.w3.org/2000/svg" p-id="15582" xmlns:xlink="http://www.w3.org/1999/xlink" width="200" height="200"><path d="M512 942.08c237.52704 0 430.08-192.55296 430.08-430.08S749.52704 81.92 512 81.92 81.92 274.47296 81.92 512s192.55296 430.08 430.08 430.08z" fill="#003425" p-id="15583"></path><path d="M730.07104 599.77728a30.39232 30.39232 0 0 0-60.74368 0v156.63104a30.37184 30.37184 0 0 0 60.74368 0v-156.63104zM686.8992 273.1008a30.37184 30.37184 0 0 0-42.8032 3.46112l-169.79968 199.63904a30.24896 30.24896 0 0 0-7.168 17.6128 30.37184 30.37184 0 0 0-0.36864 4.68992v255.20128a30.37184 30.37184 0 0 0 60.76416 0V507.392l162.83648-191.488a30.39232 30.39232 0 0 0-3.46112-42.8032zM311.56224 259.35872a30.37184 30.37184 0 1 0-47.0016 38.5024l120.29952 146.75968a30.39232 30.39232 0 1 0 47.0016-38.5024l-120.32-146.75968z" fill="#FFFFFF" p-id="15584"></path><path d="M741.56032 519.43424a37.15072 37.15072 0 1 0 0-74.30144 37.15072 37.15072 0 0 0 0 74.30144z" fill="#00FF25" p-id="15585"></path></svg>