<?xml version="1.0" encoding="UTF-8" standalone="no"?>
<!-- Created with Inkscape (http://www.inkscape.org/) -->

<svg
   version="1.1"
   id="svg1"
   width="793.70667"
   height="240"
   viewBox="0 0 793.70667 240"
   sodipodi:docname="lbmdx-v1l4m.ai"
   xmlns:inkscape="http://www.inkscape.org/namespaces/inkscape"
   xmlns:sodipodi="http://sodipodi.sourceforge.net/DTD/sodipodi-0.dtd"
   xmlns="http://www.w3.org/2000/svg"
   xmlns:svg="http://www.w3.org/2000/svg">
  <defs
     id="defs1">
    <clipPath
       clipPathUnits="userSpaceOnUse"
       id="clipPath2">
      <path
         d="M 0,180 H 595.28 V 0 H 0 Z"
         transform="translate(-465.12501,-122.0439)"
         id="path2" />
    </clipPath>
    <clipPath
       clipPathUnits="userSpaceOnUse"
       id="clipPath4">
      <path
         d="M 0,180 H 595.28 V 0 H 0 Z"
         transform="translate(-418.81641,-128.0361)"
         id="path4" />
    </clipPath>
    <clipPath
       clipPathUnits="userSpaceOnUse"
       id="clipPath6">
      <path
         d="M 0,180 H 595.28 V 0 H 0 Z"
         id="path6" />
    </clipPath>
    <clipPath
       clipPathUnits="userSpaceOnUse"
       id="clipPath8">
      <path
         d="M 0,180 H 595.28 V 0 H 0 Z"
         transform="translate(-357.39551,-111.5352)"
         id="path8" />
    </clipPath>
    <clipPath
       clipPathUnits="userSpaceOnUse"
       id="clipPath10">
      <path
         d="M 0,180 H 595.28 V 0 H 0 Z"
         transform="translate(-296.2627,-110.4141)"
         id="path10" />
    </clipPath>
    <clipPath
       clipPathUnits="userSpaceOnUse"
       id="clipPath12">
      <path
         d="M 0,180 H 595.28 V 0 H 0 Z"
         transform="translate(-243.47751,-98.752)"
         id="path12" />
    </clipPath>
    <clipPath
       clipPathUnits="userSpaceOnUse"
       id="clipPath14">
      <path
         d="M 0,180 H 595.28 V 0 H 0 Z"
         transform="translate(-369.54301,-147.5552)"
         id="path14" />
    </clipPath>
    <clipPath
       clipPathUnits="userSpaceOnUse"
       id="clipPath16">
      <path
         d="M 0,180 H 595.28 V 0 H 0 Z"
         transform="translate(-211.28911,-71.897499)"
         id="path16" />
    </clipPath>
    <clipPath
       clipPathUnits="userSpaceOnUse"
       id="clipPath18">
      <path
         d="M 0,180 H 595.28 V 0 H 0 Z"
         transform="translate(-101.8477,-128.6528)"
         id="path18" />
    </clipPath>
    <clipPath
       clipPathUnits="userSpaceOnUse"
       id="clipPath20">
      <path
         d="M 0,180 H 595.28 V 0 H 0 Z"
         transform="translate(-209.7349,-71.356404)"
         id="path20" />
    </clipPath>
    <clipPath
       clipPathUnits="userSpaceOnUse"
       id="clipPath22">
      <path
         d="M 0,180 H 595.28 V 0 H 0 Z"
         transform="translate(-107.0547,-144.8589)"
         id="path22" />
    </clipPath>
    <clipPath
       clipPathUnits="userSpaceOnUse"
       id="clipPath24">
      <path
         d="M 0,180 H 595.28 V 0 H 0 Z"
         transform="translate(-119.8936,-153.7344)"
         id="path24" />
    </clipPath>
    <clipPath
       clipPathUnits="userSpaceOnUse"
       id="clipPath26">
      <path
         d="M 0,180 H 595.28 V 0 H 0 Z"
         transform="translate(-394.08111,-60.727502)"
         id="path26" />
    </clipPath>
    <clipPath
       clipPathUnits="userSpaceOnUse"
       id="clipPath28">
      <path
         d="M 0,180 H 595.28 V 0 H 0 Z"
         transform="translate(-430.52641,-78.626004)"
         id="path28" />
    </clipPath>
    <clipPath
       clipPathUnits="userSpaceOnUse"
       id="clipPath30">
      <path
         d="M 0,180 H 595.28 V 0 H 0 Z"
         transform="translate(-432.19821,-84.306602)"
         id="path30" />
    </clipPath>
  </defs>
  <sodipodi:namedview
     id="namedview1"
     pagecolor="#ffffff"
     bordercolor="#000000"
     borderopacity="0.25"
     inkscape:showpageshadow="2"
     inkscape:pageopacity="0.0"
     inkscape:pagecheckerboard="0"
     inkscape:deskcolor="#d1d1d1">
    <inkscape:page
       x="0"
       y="0"
       inkscape:label="1"
       id="page1"
       width="793.70667"
       height="240"
       margin="36.315735 160.42799 34.950668 130.21359"
       bleed="0" />
  </sodipodi:namedview>
  <g
     id="layer-MC0"
     inkscape:groupmode="layer"
     inkscape:label="图层 1">
    <path
       id="path1"
       d="m 0,0 v 2.879 c 0,2.172 -2.736,3.246 -8.22,3.246 h -14.553 c -5.733,0 -8.597,-1.052 -8.597,-3.174 l -0.06,-9.782 0.069,-2.566 c 0.377,-3.174 5.59,-4.791 14.976,-4.791 0.645,0 13.87,0.004 14.795,0.032 0.912,0.03 1.494,0.048 1.726,0.048 v -8.791 h -19.741 c -8.276,0 -13.963,1.193 -17.028,3.545 -3.181,2.436 -4.763,5.368 -4.763,8.786 V 2.477 c 0,4.471 2.324,7.767 6.982,9.899 3.493,1.636 7.768,2.43 12.824,2.43 h 14.563 c 4.249,0 7.914,-0.764 10.974,-2.303 C 7.865,10.534 9.834,7.68 9.834,3.875 V -8.971 H -24.402 V 0 Z"
       style="fill:#231916;fill-opacity:1;fill-rule:nonzero;stroke:none"
       transform="matrix(1.3333333,0,0,-1.3333333,620.16667,77.2748)"
       clip-path="url(#clipPath2)" />
    <path
       id="path3"
       d="m 0,0 h -12.973 c -5.033,0 -7.539,-1.104 -7.539,-3.286 v -25.835 h -10.017 v 25.835 c 0,8.065 6.144,12.077 18.486,12.077 L 0,8.791 Z"
       style="fill:#231916;fill-opacity:1;fill-rule:nonzero;stroke:none"
       transform="matrix(1.3333333,0,0,-1.3333333,558.42187,69.2852)"
       clip-path="url(#clipPath4)" />
    <path
       id="path5"
       d="m 378.055,99.159 h -9.984 v 36.739 h 9.984 z"
       style="fill:#231916;fill-opacity:1;fill-rule:nonzero;stroke:none"
       transform="matrix(1.3333333,0,0,-1.3333333,0,240)"
       clip-path="url(#clipPath6)" />
    <path
       id="path7"
       d="m 0,0 c 0,-8.044 -6.002,-12.066 -17.972,-12.066 h -23.207 v -10.102 h -10.028 v 35.815 c 0,7.757 6.307,11.645 18.932,11.645 h 12.421 C -6.608,25.292 0,21.449 0,13.757 Z m -10.095,-0.095 v 13.742 c 0,1.935 -2.529,2.881 -7.582,2.881 h -14.275 c -6.15,0 -9.227,-1.013 -9.227,-3.05 V -3.353 h 23.545 c 5.021,0 7.539,1.082 7.539,3.258"
       style="fill:#231916;fill-opacity:1;fill-rule:nonzero;stroke:none"
       transform="matrix(1.3333333,0,0,-1.3333333,476.52733,91.2864)"
       clip-path="url(#clipPath8)" />
    <path
       id="path9"
       d="m 0,0 c 0,-7.5 -5.506,-11.245 -16.556,-11.245 h -30.443 v 8.766 h 30.496 c 4.133,0 6.19,0.806 6.19,2.472 v 1.33 c 0,1.394 -1.834,2.117 -5.523,2.117 h -12.687 c -12.4,0 -18.593,3.614 -18.593,10.849 v 1.938 c 0,4.249 2.059,7.168 6.167,8.713 2.586,0.983 6.442,1.473 11.568,1.473 h 26.813 v -8.791 h -26.467 c -5.371,0 -8.069,-0.547 -8.069,-1.66 v -1.588 c 0,-1.074 1.237,-1.708 3.705,-1.965 0.659,-0.072 2.314,-0.11 4.923,-0.11 h 12.913 C -5.178,12.299 0,8.741 0,1.623 Z"
       style="fill:#231916;fill-opacity:1;fill-rule:nonzero;stroke:none"
       transform="matrix(1.3333333,0,0,-1.3333333,395.01693,92.7812)"
       clip-path="url(#clipPath10)" />
    <path
       id="path11"
       d="m 0,0 h -11.713 l -8.643,12.292 h -32.27 l -5.757,-8.396 -5.428,9.634 21.633,30.802 c 1.511,2.142 3.45,3.208 5.852,3.208 2.411,0 4.337,-1.061 5.799,-3.173 z m -26.727,21.305 -9.971,14.121 -9.755,-14.121 z"
       style="fill:#231916;fill-opacity:1;fill-rule:nonzero;stroke:none"
       transform="matrix(1.3333333,0,0,-1.3333333,324.63667,108.33067)"
       clip-path="url(#clipPath12)" />
    <path
       id="path13"
       d="m 0,0 h 6.73 c 0.868,0 1.592,-0.729 1.592,-1.6 v -5.203 c 0,-0.884 -0.724,-1.614 -1.592,-1.614 H 0 c -0.876,0 -1.6,0.73 -1.6,1.614 V -1.6 C -1.6,-0.729 -0.876,0 0,0"
       style="fill:#231916;fill-opacity:1;fill-rule:evenodd;stroke:none"
       transform="matrix(1.3333333,0,0,-1.3333333,492.724,43.259733)"
       clip-path="url(#clipPath14)" />
    <path
       id="path15"
       d="m 0,0 c -3.715,-13.776 -7.016,-22.255 -11.234,-35.673 -1.325,-4.199 -4.141,-6.966 -8.763,-5.46 C -18.427,-40.511 0,0 0,0"
       style="fill:#c9cacb;fill-opacity:1;fill-rule:evenodd;stroke:none"
       transform="matrix(1.3333333,0,0,-1.3333333,281.7188,144.13667)"
       clip-path="url(#clipPath16)" />
    <path
       id="path17"
       d="m 0,0 c 0.257,-0.769 20.171,-29.367 29.432,-42.943 l 16.91,-24.753 c 0,0 -37.605,43.236 -47.696,54.526 C -8.441,-5.233 0,0 0,0"
       style="fill:#c9cacb;fill-opacity:1;fill-rule:evenodd;stroke:none"
       transform="matrix(1.3333333,0,0,-1.3333333,135.79693,68.462933)"
       clip-path="url(#clipPath18)" />
    <path
       id="path19"
       d="m 0,0 c -6.936,-13.617 -13.882,-27.229 -20.824,-40.834 -2.127,-4.204 -7.699,-4.02 -12.197,-1.438 1.77,0.317 3.776,0.918 4.979,2.614 z"
       style="fill:#fdd000;fill-opacity:1;fill-rule:evenodd;stroke:none"
       transform="matrix(1.3333333,0,0,-1.3333333,279.64653,144.85813)"
       clip-path="url(#clipPath20)" />
    <path
       id="path21"
       d="m 0,0 3.052,0.007 c 0.145,-0.901 0.441,-1.822 0.916,-2.831 7.036,-14.79 14.485,-30.439 22.369,-47.01 L 40.692,-80.035 24.093,-55.08 C 13.624,-39.34 3.722,-24.47 -5.64,-10.404 -9.445,-4.684 -6.679,-0.053 0,0"
       style="fill:#fdd000;fill-opacity:1;fill-rule:evenodd;stroke:none"
       transform="matrix(1.3333333,0,0,-1.3333333,142.7396,46.8548)"
       clip-path="url(#clipPath22)" />
    <path
       id="path23"
       d="m 0,0 46.118,-4.469 c 2.749,-0.267 4.132,-0.759 6.346,-4.322 l 8.401,-14.438 c 0,0 -4.071,2.894 -9.35,7.053 -5.275,4.152 -7.715,3.762 -7.715,3.762 0,0 -13.726,0.056 -26.198,0.238 -5.978,0.072 -6.599,-3.463 -3.543,-9.051 13.99,-27.099 18.226,-34.968 32.314,-61.348 2.932,-5.516 6.237,-7.458 11.379,-3.346 6.197,4.968 29.228,20.8 29.228,20.8 l 2.468,-4.063 c 2.769,-4.406 2.612,-7.142 0.995,-9.332 -10.168,-13.839 -20.327,-27.673 -30.504,-41.538 -4.528,-6.156 -14.666,-1.472 -18.036,6.167 -9.485,19.929 -18.393,38.674 -26.774,56.281 -7.872,16.55 -15.317,32.212 -22.358,47.008 C -10.091,-4.589 -6.608,0.637 0,0"
       style="fill:#f08300;fill-opacity:1;fill-rule:evenodd;stroke:none"
       transform="matrix(1.3333333,0,0,-1.3333333,159.85813,35.0208)"
       clip-path="url(#clipPath24)" />
    <path
       id="path25"
       d="M 0,0 V 5.601 C 0.915,5.897 1.396,6.783 1.396,8.349 V 18.61 c 0,1.828 0.399,3.206 1.255,4.172 0.801,0.919 2.216,1.376 4.23,1.376 h 13.284 c 1.949,0 3.37,-0.399 4.249,-1.225 0.743,-0.72 1.11,-1.933 1.11,-3.606 v -13 C 25.524,3.166 23.349,1.216 21.46,0.449 20.683,0.127 19.808,-0.048 18.812,-0.048 L 16.889,0 v 4.464 h 0.896 c 0.806,0 1.37,0.41 1.683,1.256 l 0.045,12.553 c 0,1.001 -0.548,1.526 -1.558,1.526 H 8.939 c -0.485,0 -0.878,-0.143 -1.12,-0.43 C 7.544,19.055 7.393,18.728 7.393,18.389 V 17.34 h 9.292 V 12.921 H 7.393 v -2.749 h 9.292 V 5.695 L 7.067,5.678 C 6.521,3.686 4.538,2.277 3.519,1.403 2.66,0.651 1.459,0.205 0,0 m -25.528,-24.232 v 5.354 h 22.271 v 3.493 h -20.689 v 5.006 h 20.689 v 3.528 H -24.732 V -2.14 H 24.97 V -6.851 H 3.49 v -3.528 h 20.682 v -5.006 H 3.49 v -3.493 h 22.355 v -5.354 z m -0.063,41.317 v 5.363 h 9.492 v 2.397 h 5.17 v -2.397 h 9.975 V 17.085 H -16.556 V 7.378 c 0,-1.358 0.457,-2.032 1.432,-2.032 h 12.666 v -5.373 h -15.469 c -3.603,0 -5.39,1.827 -5.39,5.477 V 17.085 Z M -78.716,-0.569 h 28.429 v 5.376 h -28.429 z m 32.095,7.639 c 0,0.622 -0.169,1.094 -0.456,1.354 -0.299,0.295 -1.038,0.479 -2.242,0.454 L -80.252,8.844 c -0.789,0 -1.291,-0.085 -1.563,-0.348 -0.329,-0.289 -0.47,-0.764 -0.422,-1.4 V 5.271 -1.224 -1.748 c -0.048,-0.806 0.036,-1.4 0.212,-1.757 0.262,-0.535 0.792,-0.779 1.617,-0.779 h 31.559 c 1.473,0 2.228,0.599 2.228,1.82 z m -43.332,-26.591 v 5.427 h 22.097 v 4.437 h -15.676 c -1.763,0 -3.15,0.489 -4.109,1.418 -0.867,0.891 -1.319,2.088 -1.319,3.588 V 9.283 c 0,1.653 0.547,3.001 1.697,3.917 0.849,0.687 2.096,1.059 3.722,1.059 h 14.517 v 10.618 h 6.752 v -2.534 h 23.443 v -4.926 h -23.443 v -3.158 h 15.873 c 1.527,0 2.567,-0.093 3.123,-0.26 2.27,-0.691 3.373,-2.31 3.373,-4.844 V -4.04 c 0,-3.757 -1.754,-5.617 -5.351,-5.617 h -15.774 v -4.437 h 22.098 v -5.427 h -22.098 v -4.839 h -6.828 v 4.839 z"
       style="fill:#231916;fill-opacity:1;fill-rule:nonzero;stroke:none"
       transform="matrix(1.3333333,0,0,-1.3333333,525.44147,159.03)"
       clip-path="url(#clipPath26)" />
    <path
       id="path27"
       d="M 0,0 H 2.22 C 2.683,0 3.052,0.043 3.319,0.141 3.577,0.235 3.784,0.393 3.925,0.612 4.06,0.819 4.132,1.057 4.132,1.307 4.132,1.673 3.997,1.966 3.723,2.218 3.462,2.439 3.032,2.56 2.462,2.56 H 0 Z M -1.01,-4.341 V 3.416 H 2.422 C 3.11,3.416 3.632,3.351 3.997,3.214 4.356,3.069 4.653,2.829 4.857,2.479 5.063,2.115 5.179,1.73 5.179,1.307 5.179,0.757 4.999,0.29 4.653,-0.09 4.293,-0.467 3.739,-0.701 3,-0.806 3.263,-0.938 3.479,-1.061 3.624,-1.188 3.917,-1.463 4.2,-1.812 4.463,-2.219 L 5.815,-4.341 H 4.526 l -1.029,1.62 c -0.305,0.457 -0.549,0.824 -0.73,1.072 -0.211,0.244 -0.37,0.414 -0.532,0.503 -0.142,0.108 -0.304,0.175 -0.464,0.223 -0.106,0.025 -0.304,0.037 -0.57,0.037 H 0 v -3.455 z"
       style="fill:#231916;fill-opacity:1;fill-rule:nonzero;stroke:none"
       transform="matrix(1.3333333,0,0,-1.3333333,574.0352,135.16533)"
       clip-path="url(#clipPath28)" />
    <path
       id="path29"
       d="m 0,0 c -3.373,0 -6.118,-2.734 -6.118,-6.103 0,-3.368 2.745,-6.119 6.118,-6.119 3.364,0 6.103,2.751 6.103,6.119 C 6.103,-2.734 3.364,0 0,0 m 0,-13.098 c -3.865,0 -7.003,3.126 -7.003,6.995 0,3.848 3.138,6.994 7.003,6.994 3.849,0 6.994,-3.146 6.994,-6.994 0,-3.869 -3.145,-6.995 -6.994,-6.995"
       style="fill:#231916;fill-opacity:1;fill-rule:nonzero;stroke:none"
       transform="matrix(1.3333333,0,0,-1.3333333,576.26427,127.5912)"
       clip-path="url(#clipPath30)" />
  </g>
</svg>
